<svg xmlns="http://www.w3.org/2000/svg" width="32" height="24" fill="none" viewBox="0 0 32 24"><mask id="mask0_2_940" style="mask-type:luminance" width="32" height="24" x="0" y="0" maskUnits="userSpaceOnUse"><rect width="32" height="24" fill="#fff"/></mask><g mask="url(#mask0_2_940)"><path fill="#E31D1C" fill-rule="evenodd" d="M0 0H32V24H0V0Z" clip-rule="evenodd"/><path fill="#FECA00" fill-rule="evenodd" d="M15.0157 4.54832L14.0056 5.15815L14.236 3.96812L13.3948 3.0775L14.5338 3.02935L15.0157 1.91815L15.4977 3.02935H16.6348L15.7955 3.96812L16.0482 5.15815L15.0157 4.54832Z" clip-rule="evenodd"/><path fill="#FECA00" fill-rule="evenodd" d="M7.01754 9.60722L4.1367 11.1582L4.7938 8.13166L2.39478 5.86662L5.6432 5.74415L7.01754 2.91815L8.39188 5.74415H11.6348L9.24127 8.13166L9.96186 11.1582L7.01754 9.60722Z" clip-rule="evenodd"/><path fill="#FECA00" fill-rule="evenodd" d="M17.0157 8.54832L16.0056 9.15815L16.236 7.96812L15.3948 7.0775L16.5338 7.02935L17.0157 5.91815L17.4977 7.02935H18.6348L17.7955 7.96812L18.0482 9.15815L17.0157 8.54832Z" clip-rule="evenodd"/><path fill="#FECA00" fill-rule="evenodd" d="M16.0157 12.5483L15.0056 13.1582L15.236 11.9681L14.3948 11.0775L15.5338 11.0293L16.0157 9.91815L16.4977 11.0293H17.6348L16.7955 11.9681L17.0482 13.1582L16.0157 12.5483Z" clip-rule="evenodd"/><path fill="#FECA00" fill-rule="evenodd" d="M13.0157 15.5483L12.0056 16.1582L12.236 14.9681L11.3948 14.0775L12.5338 14.0293L13.0157 12.9182L13.4977 14.0293H14.6348L13.7955 14.9681L14.0482 16.1582L13.0157 15.5483Z" clip-rule="evenodd"/></g></svg>