<svg width="64" height="39" viewBox="0 0 64 39" fill="none" xmlns="http://www.w3.org/2000/svg">
<path fill-rule="evenodd" clip-rule="evenodd" d="M0.608964 4.93853C0 6.4087 0 8.27247 0 12V20C0 23.7275 0 25.5913 0.608964 27.0615C1.42092 29.0217 2.97831 30.5791 4.93853 31.391C6.4087 32 8.27247 32 12 32H26.6114L31.2076 37.9706C31.6079 38.4906 32.3921 38.4906 32.7924 37.9706L37.3886 32H52C55.7275 32 57.5913 32 59.0615 31.391C61.0217 30.5791 62.5791 29.0217 63.391 27.0615C64 25.5913 64 23.7275 64 20V12C64 8.27247 64 6.4087 63.391 4.93853C62.5791 2.97831 61.0217 1.42092 59.0615 0.608964C57.5913 0 55.7275 0 52 0H12C8.27247 0 6.4087 0 4.93853 0.608964C2.97831 1.42092 1.42092 2.97831 0.608964 4.93853Z" fill="#1D3A70"/>
</svg>
