<svg width="16" height="16" viewBox="0 0 16 16" fill="none" xmlns="http://www.w3.org/2000/svg">
<path d="M5.33333 8H2.66667C2.29848 8 2 8.29848 2 8.66667V12.6667C2 13.0349 2.29848 13.3333 2.66667 13.3333H5.33333C5.70152 13.3333 6 13.0349 6 12.6667V8.66667C6 8.29848 5.70152 8 5.33333 8Z" stroke="black" stroke-width="1.5" stroke-linecap="round" stroke-linejoin="round"/>
<path d="M9.33333 5.3335H6.66667C6.29848 5.3335 6 5.63197 6 6.00016V12.6668C6 13.035 6.29848 13.3335 6.66667 13.3335H9.33333C9.70152 13.3335 10 13.035 10 12.6668V6.00016C10 5.63197 9.70152 5.3335 9.33333 5.3335Z" stroke="black" stroke-width="1.5" stroke-linecap="round" stroke-linejoin="round"/>
<path d="M13.3333 2.66675H10.6667C10.2985 2.66675 10 2.96522 10 3.33341V12.6667C10 13.0349 10.2985 13.3334 10.6667 13.3334H13.3333C13.7015 13.3334 14 13.0349 14 12.6667V3.33341C14 2.96522 13.7015 2.66675 13.3333 2.66675Z" stroke="black" stroke-width="1.5" stroke-linecap="round" stroke-linejoin="round"/>
<path d="M2.66666 13.3335H12" stroke="black" stroke-width="1.5" stroke-linecap="round" stroke-linejoin="round"/>
</svg>
