<svg width="259" height="209" viewBox="0 0 259 209" fill="none" xmlns="http://www.w3.org/2000/svg">
<g clip-path="url(#clip0_2_3795)">
<path d="M147.548 184.897C145.757 182.387 143.332 180.551 140.284 179.864C137.627 179.264 134.894 179.366 132.192 179.387L98.0309 179.651C95.1052 179.673 92.3 182.21 92.436 185.251C92.5708 188.265 94.8948 190.874 98.0309 190.85C108.038 190.773 118.045 190.696 128.051 190.619C130.41 190.6 132.771 190.558 135.13 190.566C135.66 190.567 136.188 190.595 136.717 190.601C136.845 190.603 136.938 190.602 137.003 190.599C137.02 190.604 137.033 190.608 137.055 190.614C137.331 190.69 137.614 190.742 137.892 190.814C137.795 190.817 138.072 190.991 138.211 191.049C138.23 191.087 138.271 191.154 138.339 191.258C138.434 191.436 138.716 191.978 138.728 191.961C139.151 193.032 139.5 194.13 139.772 195.248C140.422 197.715 140.565 198.23 140.659 200.544C140.777 203.467 143.147 206.283 146.254 206.144C149.184 206.013 151.975 203.679 151.849 200.544C151.635 195.262 150.708 189.328 147.548 184.897Z" fill="#E6E6E6"/>
<path d="M100.039 197.534C99.3973 193.642 98.7679 189.748 98.1138 185.858C97.4501 181.913 96.0946 178.3 93.0267 175.71C92.207 175.018 91.357 174.372 90.5035 173.728C90.2033 173.502 89.9037 173.275 89.6071 173.044C89.5893 173.03 89.5781 173.021 89.5627 173.009C89.5301 172.981 89.491 172.948 89.4384 172.903C88.1597 171.82 86.9242 170.689 85.7473 169.486C84.7022 168.418 83.7027 167.305 82.7489 166.146C82.5105 165.856 82.2752 165.564 82.043 165.269C82.0031 165.219 81.7879 164.94 81.6462 164.759C81.5144 164.577 81.2735 164.249 81.233 164.192C80.9617 163.808 80.6952 163.42 80.4336 163.029C78.6516 160.357 77.1085 157.533 75.8224 154.589C75.6948 154.297 75.5703 154.003 75.4488 153.708C75.4162 153.618 75.374 153.502 75.318 153.348C75.0588 152.635 74.8001 151.922 74.5631 151.2C74.0596 149.667 73.6267 148.111 73.2645 146.533C73.0854 145.754 72.9241 144.97 72.7807 144.183C72.7068 143.778 72.6377 143.372 72.5733 142.966C72.5627 142.898 72.4999 142.46 72.4628 142.212C72.4355 141.963 72.3846 141.522 72.3778 141.454C72.3368 141.044 72.3005 140.634 72.2687 140.223C72.1972 139.299 72.1488 138.373 72.1236 137.446C72.0806 135.799 72.11 134.151 72.212 132.504C72.2701 131.578 72.3527 130.655 72.4545 129.734C72.4606 129.677 72.4654 129.632 72.4698 129.592C72.476 129.55 72.4832 129.504 72.4917 129.446C72.567 128.936 72.6462 128.428 72.7348 127.921C73.0704 125.996 73.5069 124.09 74.0424 122.211C74.2959 121.323 74.5713 120.441 74.8686 119.567C75.0011 119.179 75.1378 118.793 75.2787 118.407C75.2695 118.432 75.6921 117.352 75.6977 117.316C77.3744 113.351 80.1169 109.736 80.1207 105.232C80.1232 102.183 77.5455 99.2614 74.5258 99.4024C73.0202 99.4591 71.5954 100.099 70.5517 101.186C69.508 102.274 68.9269 103.724 68.9309 105.232C68.9309 105.301 68.9305 105.359 68.9304 105.416C68.9022 105.511 68.8786 105.59 68.8574 105.66C68.5305 106.371 68.1299 107.047 67.771 107.74C66.7882 109.638 65.9494 111.599 65.1525 113.588C63.848 116.827 62.8494 120.182 62.17 123.607C60.6931 131.113 60.5785 138.824 61.8316 146.37C64.0008 159.604 71.1546 172.272 81.1 180.787C81.9631 181.526 82.8472 182.24 83.7397 182.94C84.109 183.229 84.4814 183.513 84.8557 183.796C85.0326 183.929 85.7654 184.508 85.443 184.227C86.1362 184.819 86.428 185.117 86.6061 185.554C86.6319 185.654 86.6671 185.791 86.7147 185.977C86.8402 186.469 86.9594 186.96 87.0584 187.459C87.9241 191.816 88.5258 196.247 89.2489 200.633C89.7459 203.647 93.4527 205.608 96.1313 204.705C99.2491 203.654 100.571 200.763 100.039 197.534Z" fill="#E6E6E6"/>
<path d="M148.114 208.836C145.764 208.843 143.508 207.916 141.84 206.259C140.172 204.602 139.229 202.351 139.218 199.999V193.612C132.536 194.36 109.655 194.187 103.096 193.132V199.744C103.078 202.094 102.133 204.341 100.467 205.997C98.8003 207.652 96.5476 208.581 94.1997 208.581C91.8519 208.581 89.5992 207.652 87.9328 205.997C86.2664 204.341 85.3214 202.094 85.3038 199.744V186.763C76.4204 181.823 69.0148 174.601 63.8514 165.841C58.6879 157.081 55.9536 147.1 55.9306 136.929C55.9306 119.49 63.8274 103.221 77.5964 92.295C86.5488 85.1668 97.4259 80.88 108.831 79.985C110.379 79.8635 111.936 79.802 113.46 79.802C118.829 79.802 143.05 80.632 149.127 82.3819L162.984 68.62C163.188 68.415 163.448 68.2753 163.731 68.2187C164.014 68.1622 164.308 68.1915 164.575 68.3027C164.844 68.4097 165.074 68.5955 165.235 68.8358C165.396 69.076 165.481 69.3595 165.479 69.649V71.837L168.177 69.1624C168.38 68.9572 168.64 68.8173 168.923 68.7606C169.207 68.704 169.5 68.7332 169.767 68.8446C170.036 68.9515 170.266 69.1374 170.428 69.3778C170.589 69.6181 170.674 69.9017 170.671 70.1914V94.6427C177.625 100.917 182.924 108.81 186.101 117.624C189.277 126.438 190.232 135.9 188.881 145.172C187.529 154.444 183.914 163.239 178.355 170.778C172.795 178.316 165.463 184.366 157.009 188.391V199.999C156.998 202.351 156.055 204.602 154.387 206.259C152.719 207.916 150.463 208.843 148.114 208.836ZM139.917 192.818V199.999C139.935 202.164 140.806 204.233 142.341 205.757C143.876 207.281 145.951 208.136 148.113 208.136C150.276 208.136 152.351 207.281 153.886 205.757C155.421 204.233 156.292 202.164 156.31 199.999V187.949L156.51 187.854C165.996 183.349 174.049 176.3 179.774 167.491C187.07 156.251 190.104 142.767 188.328 129.481C186.551 116.195 180.081 103.984 170.088 95.0593L169.972 94.9549V70.1913C169.975 70.0409 169.931 69.8933 169.847 69.7684C169.763 69.6435 169.643 69.5474 169.503 69.4929C169.364 69.4333 169.21 69.4172 169.061 69.4468C168.912 69.4763 168.776 69.5501 168.67 69.6585L164.779 73.5155V69.6489C164.782 69.4985 164.738 69.3509 164.654 69.226C164.57 69.1011 164.45 69.005 164.31 68.9505C164.17 68.891 164.016 68.8751 163.867 68.9048C163.718 68.9346 163.582 69.0086 163.476 69.1173L149.322 83.1738L149.121 83.1107C143.472 81.341 118.869 80.5019 113.46 80.5019C111.954 80.5019 110.415 80.5628 108.886 80.6829C97.6195 81.5669 86.8745 85.8017 78.031 92.8434C64.4303 103.636 56.6299 119.705 56.6299 136.929C56.6532 147.01 59.3729 156.901 64.5065 165.574C69.6401 174.247 77.0004 181.387 85.8228 186.25L86.0031 186.35V199.744C86.0212 201.908 86.8927 203.977 88.4279 205.501C89.9631 207.025 92.0376 207.879 94.1997 207.879C96.3618 207.879 98.4364 207.025 99.9716 205.501C101.507 203.977 102.378 201.908 102.396 199.744V192.294L102.811 192.372C108.705 193.482 133.524 193.657 139.522 192.87L139.917 192.818Z" fill="#3F3D56"/>
<path d="M100.707 41.689L61.9836 53.3363C60.752 53.7083 59.7182 54.5543 59.1094 55.6887C58.5006 56.823 58.3666 58.1528 58.7369 59.386C59.1071 60.6191 59.9513 61.6547 61.084 62.2653C62.2166 62.8759 63.5452 63.0115 64.7777 62.6423L98.6651 52.4474L99.375 52.2339C99.5187 48.5726 100.511 44.9948 102.274 41.7834C102.053 41.6838 101.816 41.6223 101.575 41.6014C101.283 41.5731 100.988 41.6029 100.707 41.689Z" fill="#1DAB87"/>
<path d="M64.1079 65.1254C63.5939 65.1242 63.0932 64.9612 62.6767 64.6597C62.2602 64.3582 61.9489 63.9333 61.7868 63.4451L59.3653 56.1319C59.2642 55.8265 59.2241 55.5041 59.2475 55.1832C59.2708 54.8623 59.3571 54.5492 59.5014 54.2617C59.6457 53.9741 59.8451 53.7179 60.0884 53.5075C60.3316 53.2972 60.6139 53.1368 60.919 53.0357L92.4362 42.5817C92.7413 42.4805 93.0634 42.4404 93.3839 42.4637C93.7045 42.4871 94.0174 42.5734 94.3047 42.7177C94.5919 42.8621 94.848 43.0617 95.0582 43.3051C95.2683 43.5485 95.4286 43.8309 95.5297 44.1363L97.9512 51.4495C98.1526 52.051 98.1123 52.7074 97.8386 53.2796C97.5649 53.8518 97.0794 54.2949 96.4849 54.5151C96.4558 54.526 96.4264 54.5363 96.3967 54.546L64.8803 64.9996C64.6312 65.0827 64.3705 65.1252 64.1079 65.1254Z" fill="#2F2E41"/>
<path d="M123.132 28.7012C116.771 28.7036 110.661 31.1833 106.094 35.6153C101.528 40.0474 98.8632 46.0839 98.6651 52.4474C98.6581 52.6959 98.6547 52.9479 98.6547 53.1998C98.6547 58.0452 100.09 62.7818 102.78 66.8106C105.47 70.8394 109.292 73.9794 113.765 75.8337C118.238 77.6879 123.159 78.1731 127.908 77.2278C132.656 76.2825 137.017 73.9492 140.441 70.523C143.864 67.0968 146.195 62.7316 147.14 57.9793C148.084 53.227 147.599 48.3012 145.747 43.8246C143.894 39.3481 140.757 35.5219 136.731 32.8299C132.706 30.138 127.974 28.7012 123.132 28.7012ZM123.132 76.9986C116.828 76.992 110.784 74.4825 106.326 70.0208C101.868 65.5591 99.3606 59.5096 99.354 53.1998C99.354 52.8744 99.361 52.5524 99.375 52.2339C99.5644 47.5721 101.119 43.0688 103.845 39.284C106.571 35.4993 110.348 32.6 114.707 30.9467C119.067 29.2934 123.815 28.9591 128.363 29.9853C132.91 31.0114 137.056 33.3529 140.285 36.7184C143.513 40.0839 145.682 44.325 146.522 48.9144C147.361 53.5037 146.835 58.2389 145.007 62.531C143.179 66.8231 140.131 70.4828 136.242 73.0551C132.353 75.6274 127.794 76.9987 123.132 76.9986Z" fill="#3F3D56"/>
<path d="M143.763 53.1998C143.763 58.6763 141.59 63.9284 137.721 67.8008C133.852 71.6732 128.604 73.8487 123.132 73.8487C117.661 73.8487 112.413 71.6732 108.544 67.8008C104.675 63.9284 102.501 58.6763 102.501 53.1998C102.501 52.5454 102.533 51.9014 102.592 51.2644C103.089 45.9791 105.601 41.0885 109.606 37.608C113.611 34.1276 118.802 32.3247 124.1 32.5738C129.398 32.8228 134.397 35.1047 138.059 38.9456C141.721 42.7864 143.763 47.8911 143.763 53.1998Z" fill="#E6E6E6"/>
<path d="M129.276 54.5716C128.776 53.9136 128.118 53.3923 127.363 53.0562C126.433 52.6635 125.471 52.3475 124.489 52.1113V46.4906C125.999 46.7184 127.415 47.3646 128.577 48.356L129.717 45.9236C129.061 45.339 128.308 44.8735 127.493 44.5482C126.589 44.1817 125.64 43.9381 124.671 43.8237V40.9749H122.031V43.8517C121.011 43.9663 120.028 44.2968 119.146 44.8212C118.349 45.2931 117.678 45.9512 117.191 46.739C116.726 47.5079 116.485 48.3917 116.495 49.2904C116.45 50.2644 116.732 51.2255 117.296 52.0203C117.815 52.7084 118.501 53.2528 119.289 53.6022C120.235 54.0064 121.213 54.3307 122.213 54.5716V59.9578C120.431 59.8233 118.733 59.1454 117.349 58.0154L116.209 60.4513C116.983 61.092 117.864 61.5919 118.81 61.9282C119.848 62.2998 120.932 62.5259 122.031 62.6002V65.4245H124.671V62.5477C126.137 62.3873 127.512 61.7562 128.591 60.7488C129.066 60.293 129.441 59.7434 129.692 59.135C129.944 58.5265 130.067 57.8724 130.053 57.214C130.096 56.2711 129.823 55.3407 129.276 54.5716ZM122.213 51.5163C121.57 51.3211 120.972 50.9999 120.454 50.5713C120.248 50.3886 120.086 50.1626 119.979 49.9097C119.871 49.6568 119.821 49.3831 119.831 49.1084C119.812 48.4851 120.041 47.8796 120.468 47.425C120.941 46.9481 121.551 46.6311 122.213 46.5186V51.5163ZM126.147 58.9639C125.7 59.4218 125.12 59.7247 124.489 59.8283V55.1946C125.092 55.3564 125.656 55.6386 126.147 56.024C126.333 56.1832 126.481 56.3822 126.579 56.6064C126.678 56.8306 126.725 57.0741 126.717 57.319C126.741 57.9196 126.537 58.5072 126.147 58.9639Z" fill="#1DAB87"/>
<path d="M65.2318 94.7651C64.6912 94.7642 64.1661 94.5848 63.7377 94.2548C63.3094 93.9247 63.0018 93.4624 62.8627 92.9396L61.5444 87.9454C61.3793 87.3177 61.4698 86.6501 61.796 86.089C62.1221 85.528 62.6573 85.1193 63.2841 84.9526L104.875 73.9528C105.503 73.7889 106.17 73.8805 106.73 74.2075C107.291 74.5344 107.699 75.0702 107.865 75.6976L108.982 79.9288L108.773 79.9451C98.1062 80.7752 87.9001 84.6459 79.3623 91.0993L79.3016 91.1287L65.8528 94.6844C65.6501 94.7379 65.4414 94.7651 65.2318 94.7651Z" fill="#2F2E41"/>
<path d="M58.3435 119.434C53.4646 118.712 48.7985 116.947 44.6632 114.257C42.6145 112.925 40.7179 111.373 39.0075 109.627C37.3193 107.904 35.7042 105.945 34.868 103.65C34.0635 101.526 34.105 99.1746 34.9839 97.0808C35.8508 94.9999 37.5068 93.348 39.5887 92.4872C41.6832 91.6512 44.2137 91.5618 46.2521 92.4773C47.2234 92.9034 48.0639 93.5805 48.6873 94.4392C48.9771 94.8351 49.1917 95.2809 49.3204 95.7545C49.4398 96.1836 49.4506 96.6357 49.352 97.0701C49.2324 97.5038 49.0217 97.9068 48.7337 98.2523C48.4458 98.5977 48.0875 98.8776 47.6826 99.0731C46.7917 99.5305 45.8264 99.8252 44.832 99.9432C43.8319 100.08 42.3952 100.204 41.5912 99.4004C41.4256 99.2414 41.2955 99.0493 41.2091 98.8366C41.1487 98.6738 41.128 98.4988 41.1488 98.3263C41.1371 98.4024 41.1973 98.161 41.1939 98.1706C41.1812 98.2063 41.1261 98.2933 41.2044 98.1597C41.2288 98.1156 41.2561 98.0732 41.2859 98.0326C41.2593 98.067 41.201 98.1244 41.3052 98.0259C41.3913 97.9316 41.502 97.8632 41.6249 97.8284C41.6733 97.8143 41.7224 97.8031 41.7709 97.7898C41.8943 97.7561 41.648 97.7916 41.7742 97.7876C41.8229 97.786 41.8722 97.7872 41.9207 97.785C42.0445 97.7795 41.7986 97.7513 41.9172 97.7811C41.9633 97.7927 42.0089 97.804 42.0543 97.8183C42.1529 97.8494 41.9844 97.7459 42.0513 97.8234C42.1296 97.9142 41.969 97.7351 42.058 97.823C42.1024 97.8665 42.1441 97.9126 42.1831 97.961C42.3375 98.1135 42.5457 98.1991 42.7627 98.1991C42.9797 98.1991 43.1879 98.1135 43.3423 97.961C43.4915 97.8047 43.5747 97.597 43.5747 97.3809C43.5747 97.1648 43.4915 96.957 43.3423 96.8008C42.5341 95.798 40.9375 96.0458 40.1199 96.8933C39.0772 97.9742 39.4901 99.6873 40.5044 100.63C41.6526 101.698 43.2789 101.772 44.7559 101.593C46.0042 101.474 47.2206 101.13 48.3469 100.578C49.4659 100.027 50.3411 99.081 50.803 97.9219C51.0116 97.3033 51.0865 96.6475 51.0228 95.9977C50.9591 95.348 50.7583 94.7192 50.4336 94.153C49.1295 91.6992 46.4292 90.4412 43.7602 90.2233C42.386 90.1155 41.0041 90.2816 39.6945 90.7119C38.3849 91.1422 37.1736 91.8282 36.1306 92.7301C34.1203 94.5415 32.8823 97.0568 32.6728 99.756C32.4399 102.554 33.5247 105.272 35.1063 107.531C36.7622 109.825 38.7381 111.87 40.9738 113.604C45.3446 117.096 50.4715 119.516 55.9443 120.67C56.5953 120.805 57.2497 120.92 57.9077 121.016C58.1171 121.067 58.3379 121.036 58.5252 120.929C58.7125 120.823 58.8523 120.649 58.916 120.443C58.9722 120.233 58.9436 120.01 58.8365 119.821C58.7294 119.632 58.5523 119.493 58.3435 119.434L58.3435 119.434Z" fill="#3F3D56"/>
<path d="M136.457 83.779C129.309 83.678 122.183 83.8596 115.08 84.3237C112.652 84.4824 110.551 85.3413 110.551 86.7848C110.551 87.9917 112.635 89.4056 115.08 89.2458C122.18 88.7818 129.305 88.6003 136.457 88.7012C142.288 88.7835 142.284 83.8613 136.457 83.779Z" fill="#CCCCCC"/>
<path d="M125.892 88.4576C125.119 88.4576 106.972 88.4287 106.972 85.9199C106.972 83.4112 125.119 83.3823 125.892 83.3823C126.664 83.3823 144.812 83.4112 144.812 85.9199C144.812 88.4287 126.664 88.4576 125.892 88.4576ZM107.682 85.9199C108.178 86.6805 114.849 87.7576 125.892 87.7576C136.935 87.7576 143.605 86.6805 144.102 85.9199C143.605 85.1594 136.935 84.0823 125.892 84.0823C114.849 84.0823 108.178 85.1594 107.682 85.9199V85.9199Z" fill="#3F3D56"/>
<path d="M183.468 154.412C187.485 154.3 192.485 154.16 196.337 151.344C197.484 150.471 198.426 149.358 199.098 148.082C199.77 146.806 200.154 145.399 200.225 143.959C200.304 141.735 199.501 139.793 197.965 138.494C195.953 136.793 193.015 136.393 189.85 137.325L193.13 113.334L190.722 113.004L186.866 141.208L188.877 140.284C191.208 139.214 194.408 138.67 196.396 140.351C196.884 140.791 197.265 141.338 197.508 141.948C197.751 142.559 197.849 143.218 197.797 143.873C197.738 144.945 197.449 145.992 196.949 146.942C196.45 147.892 195.752 148.724 194.903 149.38C191.906 151.571 187.92 151.854 183.401 151.98L183.468 154.412Z" fill="#3F3D56"/>
<path d="M176.811 115.403H163.722V117.836H176.811V115.403Z" fill="#3F3D56"/>
<path d="M71.1549 105.953C70.5723 105.951 70.0093 105.741 69.567 105.362C69.1246 104.982 68.8317 104.457 68.7407 103.882L67.9417 98.7783C67.842 98.1364 68.0006 97.4812 68.383 96.9563C68.7653 96.4314 69.3401 96.0798 69.9811 95.9786L112.478 89.3141C113.12 89.2142 113.774 89.3731 114.299 89.7557C114.823 90.1384 115.174 90.7136 115.275 91.3552L116.074 96.4586C116.174 97.1004 116.016 97.7556 115.633 98.2805C115.251 98.8054 114.676 99.157 114.035 99.2583L71.5379 105.923C71.4112 105.942 71.2831 105.952 71.1549 105.953Z" fill="#2F2E41"/>
<path d="M53.5674 46.1466C63.4167 46.1466 71.4011 38.1553 71.4011 28.2975C71.4011 18.4398 63.4167 10.4485 53.5674 10.4485C43.7181 10.4485 35.7336 18.4398 35.7336 28.2975C35.7336 38.1553 43.7181 46.1466 53.5674 46.1466Z" fill="#1DAB87"/>
<path d="M63.6645 32.916C64.2345 32.7165 64.7552 32.3971 65.1915 31.9794C65.4803 31.6816 65.7004 31.3242 65.8366 30.9323C65.9728 30.5403 66.0218 30.1233 65.98 29.7105C65.9557 29.4162 65.8638 29.1316 65.7114 28.8787C65.5591 28.6259 65.3503 28.4118 65.1016 28.2531C64.4562 27.8559 63.6033 27.8709 62.7423 28.2704L62.6429 21.303L61.9437 21.3129L62.0604 29.5038L62.5928 29.1544C63.2101 28.7499 64.097 28.4565 64.7351 28.8494C64.893 28.9534 65.0247 29.0924 65.1201 29.2557C65.2155 29.4189 65.272 29.602 65.2852 29.7906C65.3146 30.0982 65.2775 30.4085 65.1763 30.7004C65.0752 30.9924 64.9124 31.259 64.699 31.4823C63.9409 32.2352 62.8188 32.4874 61.5381 32.7182L61.6621 33.407C62.3429 33.3035 63.013 33.1392 63.6645 32.916Z" fill="#2F2E41"/>
<path d="M69.8442 20.8139L66.12 21.3784L66.2247 22.0704L69.9489 21.5059L69.8442 20.8139Z" fill="#2F2E41"/>
<path d="M58.089 22.5952L54.3648 23.1597L54.4695 23.8516L58.1937 23.2872L58.089 22.5952Z" fill="#2F2E41"/>
<path d="M65.3527 105.64C64.7113 105.639 64.0856 105.442 63.5587 105.076C63.0319 104.71 62.6289 104.192 62.4033 103.591L50.1075 70.634C48.6046 66.592 48.7651 62.1184 50.5537 58.1946C52.3424 54.2709 55.6131 51.2175 59.6482 49.7043L69.6462 45.9678C70.0328 45.8224 70.4443 45.7549 70.8571 45.7692C71.2699 45.7836 71.6757 45.8795 72.0513 46.0514C72.426 46.219 72.7636 46.4596 73.0443 46.7592C73.325 47.0588 73.5432 47.4114 73.6862 47.7964L96.4632 90.8384C96.6111 91.2265 96.6808 91.6401 96.6684 92.0553C96.6559 92.4705 96.5616 92.8791 96.3908 93.2577C96.2199 93.6362 95.976 93.9773 95.6729 94.2611C95.3699 94.5449 95.0138 94.766 94.6251 94.9115L66.4525 105.44C66.1009 105.572 65.7283 105.64 65.3527 105.64Z" fill="#2F2E41"/>
<path d="M66.6129 47.1014L89.2124 77.3487L73.9203 47.4189C73.794 47.0696 73.6002 46.7487 73.3499 46.4745C73.0997 46.2003 72.7979 45.978 72.4619 45.8206C72.1258 45.6631 71.7621 45.5734 71.3914 45.5566C71.0207 45.5398 70.6503 45.5963 70.3014 45.7229L66.6129 47.1014Z" fill="#E6E6E6"/>
<path d="M102.396 70.0724L62.0448 67.4709C61.4088 67.4299 60.7871 67.2639 60.2151 66.9824C59.6432 66.7009 59.1322 66.3095 58.7114 65.8303C58.2907 65.3512 57.9683 64.7938 57.7627 64.19C57.5572 63.5862 57.4725 62.9478 57.5135 62.3112C57.5544 61.6746 57.7203 61.0523 58.0015 60.4799C58.2828 59.9075 58.6739 59.3961 59.1526 58.9749C59.6313 58.5538 60.1882 58.2312 60.7915 58.0254C61.3948 57.8197 62.0327 57.7349 62.6688 57.7759L103.02 60.3772C103.318 60.3964 103.609 60.4741 103.877 60.6059C104.145 60.7377 104.384 60.921 104.581 61.1454C104.778 61.3698 104.929 61.6308 105.026 61.9136C105.122 62.1964 105.162 62.4954 105.142 62.7935L104.811 67.9484C104.772 68.5505 104.496 69.1125 104.043 69.5108C103.59 69.9091 102.998 70.1111 102.396 70.0724Z" fill="#1DAB87"/>
<path d="M91.6139 71.7402C91.5606 71.7402 91.5072 71.7385 91.4537 71.7351H91.4536L58.3192 69.599C57.9984 69.5783 57.6848 69.4946 57.3963 69.3527C57.1079 69.2107 56.8502 69.0133 56.6379 68.7717C56.4257 68.53 56.2631 68.2489 56.1595 67.9444C56.0558 67.6399 56.0131 67.3179 56.0338 66.9968L56.6004 58.1919C56.621 57.8709 56.7047 57.557 56.8465 57.2683C56.9884 56.9796 57.1857 56.7217 57.4271 56.5093C57.6686 56.2969 57.9495 56.1342 58.2538 56.0305C58.5581 55.9268 58.8798 55.884 59.2006 55.9047L92.3349 58.0407C92.9825 58.0831 93.5868 58.381 94.0152 58.8688C94.4436 59.3566 94.6612 59.9946 94.6202 60.6428L94.0537 69.4479C94.0225 69.9197 93.8559 70.3724 93.5739 70.7518C93.2919 71.1312 92.9065 71.421 92.464 71.5866C92.1921 71.6883 91.9042 71.7404 91.6139 71.7402Z" fill="#2F2E41"/>
<path d="M53.363 16.4283C55.7091 14.4088 58.9308 16.2154 61.6213 15.8991C64.1953 15.5965 66.2279 13.2856 66.7471 10.8306C67.3529 7.9663 65.8675 5.09675 63.6781 3.31094C61.2802 1.35504 58.0999 0.793552 55.0863 1.15541C51.6322 1.57013 48.4734 3.18157 45.639 5.13068C42.903 6.95377 40.387 9.08758 38.1412 11.4895C36.1302 13.7125 34.4263 16.3622 33.8822 19.3535C33.3877 22.072 33.7653 25.0845 35.371 27.3874C36.2224 28.5678 37.3634 29.5086 38.6839 30.1191C40.0607 30.7958 41.5295 31.2795 42.8634 32.0446C44.8802 33.2014 46.8404 35.6 46.2087 38.0961C46.0732 38.6414 45.8059 39.145 45.4303 39.5625C44.979 40.0639 44.1649 39.4013 44.6174 38.8986C45.4122 38.0156 45.3808 36.8379 44.9573 35.7837C44.4537 34.5957 43.5618 33.6141 42.4279 32.9998C41.0316 32.2008 39.4901 31.7076 38.059 30.9799C36.6892 30.3151 35.5002 29.3289 34.5931 28.1052C32.8803 25.7229 32.368 22.6224 32.7564 19.7543C33.1768 16.6505 34.7702 13.8301 36.7675 11.4666C38.9412 8.89441 41.6113 6.71715 44.339 4.76116C47.2658 2.66238 50.4994 0.888003 54.0776 0.24624C57.1793 -0.310069 60.5414 0.0324296 63.2537 1.72419C65.7855 3.30333 67.7269 6.01977 67.92 9.05513C67.9893 10.4362 67.6897 11.8108 67.052 13.0375C66.4142 14.2642 65.4614 15.2987 64.2916 16.0345C63.0913 16.7534 61.6957 17.077 60.3018 16.9596C58.8116 16.8641 57.3199 16.4074 55.8202 16.5342C55.1416 16.5754 54.4949 16.837 53.9781 17.2791C53.4655 17.7204 52.8546 16.8659 53.363 16.4283V16.4283Z" fill="#2F2E41"/>
<path d="M258.584 209H0.416346C0.306129 209 0.200538 208.956 0.122716 208.877C0.0448941 208.799 0.00119019 208.694 0.00119019 208.583C0.00119019 208.473 0.0448941 208.367 0.122716 208.289C0.200538 208.211 0.306129 208.167 0.416346 208.167H258.584C258.694 208.167 258.8 208.21 258.878 208.289C258.956 208.367 259 208.473 259 208.583C259 208.694 258.956 208.8 258.878 208.878C258.8 208.956 258.694 209 258.584 209Z" fill="#3F3D56"/>
</g>
<defs>
<clipPath id="clip0_2_3795">
<rect width="259" height="209" fill="white"/>
</clipPath>
</defs>
</svg>
