<svg width="32" height="24" viewBox="0 0 32 24" fill="none" xmlns="http://www.w3.org/2000/svg">
<g clip-path="url(#clip0_0_136)">
<path d="M31.6947 17.4407V17.0706H31.5947L31.479 17.3245L31.3639 17.0706H31.2636V17.4407H31.3346V17.1618L31.4428 17.4024H31.5164L31.6246 17.1612V17.4407H31.695H31.6947ZM31.0602 17.4407V17.1339H31.1882V17.0715H30.8612V17.1339H30.9892V17.4407H31.0596H31.0602Z" fill="#F79410"/>
<path d="M20.3296 19.6617H11.6759V4.10974H20.3297L20.3296 19.6617Z" fill="#FF5F00"/>
<path d="M12.224 11.8907C12.224 8.73601 13.7011 5.92577 16.0013 4.11473C14.2602 2.74185 12.1067 1.99673 9.88944 2.00001C4.42752 2.00001 0 6.42817 0 11.8907C0 17.3533 4.42752 21.7815 9.88944 21.7815C12.1068 21.7848 14.2603 21.0397 16.0014 19.6667C13.7014 17.856 12.224 15.0456 12.224 11.8907Z" fill="#EB001B"/>
<path d="M32.0043 11.8907C32.0043 17.3533 27.5767 21.7815 22.1148 21.7815C19.8972 21.7847 17.7434 21.0396 16.002 19.6667C18.3028 17.8557 19.7799 15.0456 19.7799 11.8907C19.7799 8.73585 18.3028 5.92577 16.002 4.11473C17.7434 2.74189 19.8971 1.99679 22.1146 2.00001C27.5766 2.00001 32.0041 6.42817 32.0041 11.8907" fill="#F79E1B"/>
</g>
<defs>
<clipPath id="clip0_0_136">
<rect width="32" height="24" fill="white"/>
</clipPath>
</defs>
</svg>
