<svg xmlns="http://www.w3.org/2000/svg" width="34" height="22" fill="none" viewBox="0 0 34 22"><path fill="#fff" d="M26.7313 22H7.26892C5.34179 21.998 3.4942 21.2793 2.13148 20.0015C0.768764 18.7237 0.00221493 16.9912 0 15.184V6.8163C0.00220168 5.00914 0.768725 3.27659 2.13144 1.99873C3.49415 0.72087 5.34176 0.00206365 7.26892 0H26.7313C28.6584 0.00210049 30.506 0.720928 31.8686 1.99878C33.2313 3.27664 33.9978 5.00917 34 6.8163V15.184C33.9978 16.9911 33.2313 18.7236 31.8686 20.0014C30.5059 21.2792 28.6584 21.998 26.7313 22ZM7.26892 0.71368C5.54354 0.715527 3.88939 1.35907 2.66936 2.50313C1.44933 3.64719 0.763052 5.19836 0.761081 6.8163V15.184C0.763065 16.802 1.44935 18.353 2.66938 19.4971C3.88941 20.6411 5.54355 21.2845 7.26889 21.2863H26.7312C28.4566 21.2845 30.1107 20.6411 31.3307 19.4971C32.5507 18.353 33.237 16.8019 33.2389 15.184V6.8163C33.237 5.19837 32.5507 3.64723 31.3307 2.50317C30.1107 1.3591 28.4566 0.715545 26.7312 0.713691L7.26892 0.71368Z"/></svg>