<svg width="357" height="388" viewBox="0 0 357 388" fill="none" xmlns="http://www.w3.org/2000/svg">
<g filter="url(#filter0_d_2_2553)">
<rect x="49" y="84" width="255" height="262" rx="20" fill="white" shape-rendering="crispEdges"/>
<rect x="48" y="83" width="257" height="264" rx="21" stroke="white" stroke-opacity="0.2" stroke-width="2" shape-rendering="crispEdges"/>
</g>
<g filter="url(#filter1_d_2_2553)">
<rect x="24" y="11" width="305" height="324" rx="20" fill="white"/>
<g clip-path="url(#clip0_2_2553)">
<path d="M137.625 67.9995H71.9998V133.625H137.625V67.9995ZM124.5 120.5H85.1248V81.1245H124.5V120.5Z" fill="#1D3A70"/>
<path d="M111.377 94.252H98.252V107.377H111.377V94.252Z" fill="#1D3A70"/>
<path d="M216.376 67.9995V133.625H282.001V67.9995H216.376ZM268.876 120.5H229.501V81.1245H268.876V120.5Z" fill="#1D3A70"/>
<path d="M255.753 94.252H242.628V107.377H255.753V94.252Z" fill="#1D3A70"/>
<path d="M71.9998 277.999H137.625V212.374H71.9998V277.999ZM85.1248 225.499H124.5V264.874H85.1248V225.499Z" fill="#1D3A70"/>
<path d="M111.377 238.626H98.252V251.751H111.377V238.626Z" fill="#1D3A70"/>
<path d="M203.253 67.9995H177.003V81.1245H203.253V67.9995Z" fill="#1D3A70"/>
<path d="M177.003 120.502H190.128V107.377H203.253V94.2524H163.878V81.1274H150.753V94.2524V100.815V107.377H177.003V120.502Z" fill="#1D3A70"/>
<path d="M163.878 120.5H150.753V133.625H163.878V120.5Z" fill="#1D3A70"/>
<path d="M203.253 133.626H190.128V146.751H150.753V159.876H203.253V133.626Z" fill="#1D3A70"/>
<path d="M85.1248 186.127H98.2498V173.002H85.1248V146.752H71.9998V199.252H85.1248V186.127Z" fill="#1D3A70"/>
<path d="M111.377 146.752H98.252V159.877H111.377V146.752Z" fill="#1D3A70"/>
<path d="M150.751 199.252H177.001V186.127H163.876V173.002H137.626V146.752H124.501V173.002H111.376V199.252H124.501V186.127H131.064H137.626H150.751V199.252Z" fill="#1D3A70"/>
<path d="M203.25 172.999H190.125V199.249H203.25V172.999Z" fill="#1D3A70"/>
<path d="M190.128 212.374H150.753V225.499H177.003V264.874H150.753V277.999H190.128V264.874H216.378V251.749H190.128V212.374Z" fill="#1D3A70"/>
<path d="M163.878 238.626H150.753V251.751H163.878V238.626Z" fill="#1D3A70"/>
<path d="M216.376 212.374H203.251V238.624H216.376V212.374Z" fill="#1D3A70"/>
<path d="M268.877 238.626H229.502V278.001H242.627V251.751H268.877V238.626Z" fill="#1D3A70"/>
<path d="M282 264.876H255.75V278.001H282V264.876Z" fill="#1D3A70"/>
<path d="M282.001 212.374H268.876V225.499H282.001V212.374Z" fill="#1D3A70"/>
<path d="M229.501 225.502H242.626V186.127H216.376V199.252H229.501V225.502Z" fill="#1D3A70"/>
<path d="M255.751 159.877H242.626V146.752H229.501V159.877H216.376V173.002H268.876V159.877H282.001V146.752H255.751V159.877Z" fill="#1D3A70"/>
<path d="M282 186.127H255.75V199.252H282V186.127Z" fill="#1D3A70"/>
</g>
<rect x="23.5" y="10.5" width="306" height="325" rx="20.5" stroke="white" stroke-opacity="0.4"/>
</g>
<defs>
<filter id="filter0_d_2_2553" x="24" y="72" width="309" height="316" filterUnits="userSpaceOnUse" color-interpolation-filters="sRGB">
<feFlood flood-opacity="0" result="BackgroundImageFix"/>
<feColorMatrix in="SourceAlpha" type="matrix" values="0 0 0 0 0 0 0 0 0 0 0 0 0 0 0 0 0 0 127 0" result="hardAlpha"/>
<feOffset dx="2" dy="15"/>
<feGaussianBlur stdDeviation="12.5"/>
<feComposite in2="hardAlpha" operator="out"/>
<feColorMatrix type="matrix" values="0 0 0 0 0.611765 0 0 0 0 0.639216 0 0 0 0 0.686275 0 0 0 0.04 0"/>
<feBlend mode="normal" in2="BackgroundImageFix" result="effect1_dropShadow_2_2553"/>
<feBlend mode="normal" in="SourceGraphic" in2="effect1_dropShadow_2_2553" result="shape"/>
</filter>
<filter id="filter1_d_2_2553" x="0" y="0" width="357" height="376" filterUnits="userSpaceOnUse" color-interpolation-filters="sRGB">
<feFlood flood-opacity="0" result="BackgroundImageFix"/>
<feColorMatrix in="SourceAlpha" type="matrix" values="0 0 0 0 0 0 0 0 0 0 0 0 0 0 0 0 0 0 127 0" result="hardAlpha"/>
<feOffset dx="2" dy="15"/>
<feGaussianBlur stdDeviation="12.5"/>
<feColorMatrix type="matrix" values="0 0 0 0 0.419608 0 0 0 0 0.447059 0 0 0 0 0.501961 0 0 0 0.06 0"/>
<feBlend mode="normal" in2="BackgroundImageFix" result="effect1_dropShadow_2_2553"/>
<feBlend mode="normal" in="SourceGraphic" in2="effect1_dropShadow_2_2553" result="shape"/>
</filter>
<clipPath id="clip0_2_2553">
<rect x="72" y="68" width="210" height="210" rx="12" fill="white"/>
</clipPath>
</defs>
</svg>
