<svg width="26" height="26" viewBox="0 0 26 26" fill="none" xmlns="http://www.w3.org/2000/svg">
<path d="M10.2916 14.8956C10.2916 15.9464 11.1041 16.7914 12.1008 16.7914H14.1374C15.0041 16.7914 15.7083 16.0548 15.7083 15.1339C15.7083 14.1481 15.275 13.7906 14.6358 13.5631L11.375 12.4256C10.7358 12.1981 10.3025 11.8514 10.3025 10.8548C10.3025 9.94476 11.0066 9.19727 11.8733 9.19727H13.91C14.9066 9.19727 15.7191 10.0423 15.7191 11.0931" stroke="black" stroke-width="1.5" stroke-linecap="round" stroke-linejoin="round"/>
<path d="M13 8.125V17.875" stroke="black" stroke-width="1.5" stroke-linecap="round" stroke-linejoin="round"/>
<path d="M23.8333 12.9998C23.8333 18.9798 18.98 23.8332 13 23.8332C7.01996 23.8332 2.16663 18.9798 2.16663 12.9998C2.16663 7.01984 7.01996 2.1665 13 2.1665" stroke="black" stroke-width="1.5" stroke-linecap="round" stroke-linejoin="round"/>
<path d="M18.4166 3.25V7.58333H22.75" stroke="black" stroke-width="1.5" stroke-linecap="round" stroke-linejoin="round"/>
<path d="M23.8333 2.1665L18.4166 7.58317" stroke="black" stroke-width="1.5" stroke-linecap="round" stroke-linejoin="round"/>
</svg>
