<svg width="32" height="32" viewBox="0 0 32 32" fill="none" xmlns="http://www.w3.org/2000/svg">
<path d="M4 27C4 24.6762 4.92313 22.4476 6.5663 20.8044C8.20948 19.1612 10.4381 18.2381 12.7619 18.2381C15.0857 18.2381 17.3143 19.1612 18.9575 20.8044C20.6007 22.4476 21.5238 24.6762 21.5238 27H19.3333C19.3333 25.2571 18.641 23.5857 17.4086 22.3533C16.1762 21.1209 14.5048 20.4286 12.7619 20.4286C11.0191 20.4286 9.34759 21.1209 8.1152 22.3533C6.88282 23.5857 6.19048 25.2571 6.19048 27H4ZM12.7619 17.1429C9.13119 17.1429 6.19048 14.2021 6.19048 10.5714C6.19048 6.94071 9.13119 4 12.7619 4C16.3926 4 19.3333 6.94071 19.3333 10.5714C19.3333 14.2021 16.3926 17.1429 12.7619 17.1429ZM12.7619 14.9524C15.1824 14.9524 17.1429 12.9919 17.1429 10.5714C17.1429 8.15095 15.1824 6.19048 12.7619 6.19048C10.3414 6.19048 8.38095 8.15095 8.38095 10.5714C8.38095 12.9919 10.3414 14.9524 12.7619 14.9524ZM21.8349 19.008C23.374 19.7013 24.6803 20.8242 25.5965 22.242C26.5128 23.6597 27.0002 25.3119 27 27H24.8095C24.8098 25.7339 24.4443 24.4946 23.7571 23.4313C23.0699 22.3679 22.0901 21.5256 20.9357 21.0058L21.8338 19.008H21.8349ZM21.0813 6.64281C22.1848 7.09766 23.1283 7.87007 23.7921 8.86201C24.4558 9.85396 24.81 11.0207 24.8095 12.2143C24.81 13.7173 24.2484 15.1662 23.2352 16.2763C22.2219 17.3865 20.8302 18.0776 19.3333 18.214V16.0093C20.1448 15.8931 20.8977 15.5197 21.4814 14.9441C22.0651 14.3685 22.4489 13.6209 22.5765 12.8111C22.7041 12.0013 22.5686 11.1719 22.1901 10.4448C21.8116 9.71759 21.21 9.13091 20.4735 8.77086L21.0813 6.64281Z" fill="black"/>
</svg>
