<svg width="30" height="20" viewBox="0 0 30 20" fill="none" xmlns="http://www.w3.org/2000/svg">
<path d="M4.04944 16.9419H21.0521C21.9346 16.9419 22.8085 16.7629 23.6239 16.4152C24.4392 16.0675 25.1801 15.5578 25.8041 14.9153C26.4281 14.2727 26.9232 13.5099 27.2609 12.6704C27.5986 11.8309 27.7724 10.9311 27.7724 10.0225V2.45475C27.7711 1.61554 27.6209 0.783613 27.3291 0C28.1586 0.643091 28.8317 1.47584 29.2952 2.43253C29.7587 3.38923 30 4.44372 30 5.51284V13.0805C30 13.9892 29.8262 14.889 29.4885 15.7285C29.1507 16.568 28.6557 17.3308 28.0317 17.9733C27.4076 18.6159 26.6668 19.1256 25.8514 19.4733C25.0361 19.821 24.1622 20 23.2797 20H6.277C4.91438 19.9992 3.5842 19.5717 2.46308 18.7743C1.34195 17.9769 0.482923 16.8472 0 15.5353C1.16386 16.448 2.58646 16.9421 4.04944 16.9419Z" fill="#3F3D56"/>
</svg>
