<svg xmlns="http://www.w3.org/2000/svg" width="26" height="26" fill="none" viewBox="0 0 26 26"><path stroke="#FACC15" stroke-linecap="round" stroke-linejoin="round" stroke-miterlimit="10" stroke-width="1.5" d="M9.75 9.0791H14.825C15.95 9.0791 16.8625 10.0916 16.8625 11.1166C16.8625 12.2416 15.95 13.1541 14.825 13.1541H9.75V9.0791Z"/><path stroke="#FACC15" stroke-linecap="round" stroke-linejoin="round" stroke-miterlimit="10" stroke-width="1.5" d="M9.75 13.1416H15.55C16.8375 13.1416 17.875 14.0541 17.875 15.1791C17.875 16.3041 16.8375 17.2166 15.55 17.2166H9.75V13.1416Z"/><path stroke="#FACC15" stroke-linecap="round" stroke-linejoin="round" stroke-miterlimit="10" stroke-width="1.5" d="M13.3004 17.2041V19.2416"/><path stroke="#FACC15" stroke-linecap="round" stroke-linejoin="round" stroke-miterlimit="10" stroke-width="1.5" d="M10.7625 17.2041V19.2416"/><path stroke="#FACC15" stroke-linecap="round" stroke-linejoin="round" stroke-miterlimit="10" stroke-width="1.5" d="M13.3004 7.0415V9.07901"/><path stroke="#FACC15" stroke-linecap="round" stroke-linejoin="round" stroke-miterlimit="10" stroke-width="1.5" d="M10.7625 7.0415V9.07901"/><path stroke="#FACC15" stroke-linecap="round" stroke-linejoin="round" stroke-miterlimit="10" stroke-width="1.5" d="M11.675 9.0791H8.125"/><path stroke="#FACC15" stroke-linecap="round" stroke-linejoin="round" stroke-miterlimit="10" stroke-width="1.5" d="M11.675 17.2041H8.125"/><path stroke="#FACC15" stroke-miterlimit="10" stroke-width="1.5" d="M13 23.8332C18.983 23.8332 23.8333 18.9829 23.8333 12.9998C23.8333 7.01675 18.983 2.1665 13 2.1665C7.01687 2.1665 2.16663 7.01675 2.16663 12.9998C2.16663 18.9829 7.01687 23.8332 13 23.8332Z"/></svg>