<svg width="20" height="20" viewBox="0 0 20 20" fill="none" xmlns="http://www.w3.org/2000/svg">
<path d="M3.33337 5.8335V5.00016C3.33337 4.55814 3.50897 4.13421 3.82153 3.82165C4.13409 3.50909 4.55801 3.3335 5.00004 3.3335H6.66671" stroke="#AB92F0" stroke-width="2" stroke-linecap="round" stroke-linejoin="round"/>
<path d="M3.33337 14.167V15.0003C3.33337 15.4424 3.50897 15.8663 3.82153 16.1788C4.13409 16.4914 4.55801 16.667 5.00004 16.667H6.66671" stroke="#AB92F0" stroke-width="2" stroke-linecap="round" stroke-linejoin="round"/>
<path d="M13.3334 3.3335H15C15.4421 3.3335 15.866 3.50909 16.1786 3.82165C16.4911 4.13421 16.6667 4.55814 16.6667 5.00016V5.8335" stroke="#AB92F0" stroke-width="2" stroke-linecap="round" stroke-linejoin="round"/>
<path d="M13.3334 16.667H15C15.4421 16.667 15.866 16.4914 16.1786 16.1788C16.4911 15.8663 16.6667 15.4424 16.6667 15.0003V14.167" stroke="#AB92F0" stroke-width="2" stroke-linecap="round" stroke-linejoin="round"/>
<path d="M4.16675 10H15.8334" stroke="#AB92F0" stroke-width="2" stroke-linecap="round" stroke-linejoin="round"/>
</svg>
