<svg width="259" height="92" viewBox="0 0 259 92" fill="none" xmlns="http://www.w3.org/2000/svg">
<g clip-path="url(#clip0_2_2958)">
<path fill-rule="evenodd" clip-rule="evenodd" d="M207.316 55.7369C207.166 55.4096 207.032 55.0825 206.913 54.7512C206.734 54.2542 206.623 53.735 206.472 53.2308C206.408 53.0169 206.231 52.4617 206.22 52.378C206.126 51.6481 206.665 51.3878 206.827 51.324C206.904 51.2909 207.705 50.9771 208.129 51.8458C208.648 52.9077 209.021 54.0171 209.239 55.143C209.672 56.0341 210.231 56.8871 210.866 57.6249C213.391 60.5594 216.571 60.0582 219.913 59.1298C220.426 58.984 220.962 59.2737 221.126 59.7786C221.292 60.2874 221.028 60.8368 220.527 61.0204C218.703 61.7032 215.783 64.0951 215.054 65.9662C214.901 66.3579 214.973 67.1847 214.995 68.0082C215.025 69.1517 215.003 70.2966 214.779 70.8355C214.746 70.9186 214.308 71.7952 214.149 71.9493C213.765 72.3162 213.367 72.2702 213.128 72.1941C212.888 72.1179 212.588 71.922 212.381 71.5193C212.164 71.0985 212 70.1602 211.933 69.9679C211.687 69.2702 211.17 67.9106 210.558 66.7871C210.228 66.1822 209.9 65.6301 209.545 65.4077C208.227 64.5845 206.634 65.1848 205.304 65.735C205.151 65.7967 204.999 65.8622 204.846 65.9237C204.33 66.2397 203.767 66.5225 203.157 66.7643C202.236 67.1307 201.846 66.2985 201.822 66.243C201.77 66.1207 201.529 65.4838 202.175 65.0299C202.246 64.982 202.789 64.7004 202.998 64.5908C203.289 64.4385 203.587 64.3008 203.888 64.1665C206.863 62.288 207.867 58.9816 207.316 55.7369ZM209.367 58.9386C211.272 61.144 213.459 61.8702 215.812 61.8341L215.811 61.8342C214.628 62.923 213.618 64.1595 213.197 65.2422C213.037 65.6523 212.99 66.4035 212.989 67.2333C212.684 66.5434 212.326 65.818 211.949 65.2174C211.52 64.5317 211.045 63.9945 210.602 63.7171C209.747 63.1828 208.806 63.0097 207.857 63.0536C208.676 61.8148 209.172 60.4107 209.367 58.9386Z" fill="#FFB9AA"/>
</g>
<g clip-path="url(#clip1_2_2958)">
<path fill-rule="evenodd" clip-rule="evenodd" d="M183.194 9.99836C183.12 9.8359 183.053 9.67346 182.994 9.50896C182.906 9.26224 182.85 9.00447 182.775 8.7541C182.743 8.64791 182.656 8.37222 182.65 8.33069C182.603 7.96828 182.871 7.83908 182.951 7.80739C182.99 7.79095 183.388 7.63515 183.598 8.06645C183.856 8.59369 184.041 9.14452 184.149 9.70351C184.364 10.146 184.642 10.5694 184.957 10.9358C186.211 12.3928 187.79 12.1439 189.449 11.683C189.704 11.6106 189.97 11.7544 190.051 12.0051C190.133 12.2577 190.002 12.5305 189.754 12.6217C188.848 12.9606 187.398 14.1482 187.036 15.0772C186.96 15.2717 186.996 15.6822 187.007 16.0911C187.022 16.6588 187.011 17.2273 186.9 17.4948C186.883 17.5361 186.666 17.9713 186.587 18.0478C186.397 18.23 186.199 18.2072 186.08 18.1694C185.961 18.1316 185.812 18.0343 185.709 17.8344C185.602 17.6254 185.52 17.1596 185.487 17.0641C185.365 16.7176 185.108 16.0426 184.804 15.4848C184.64 15.1845 184.478 14.9104 184.301 14.7999C183.647 14.3912 182.856 14.6893 182.196 14.9625C182.119 14.9931 182.044 15.0256 181.968 15.0562C181.712 15.213 181.432 15.3534 181.129 15.4735C180.672 15.6554 180.478 15.2422 180.466 15.2147C180.441 15.154 180.321 14.8377 180.642 14.6124C180.677 14.5886 180.947 14.4488 181.05 14.3943C181.195 14.3187 181.343 14.2503 181.492 14.1837C182.97 13.251 183.468 11.6094 183.194 9.99836ZM184.213 11.588C185.158 12.683 186.244 13.0436 187.413 13.0256L187.412 13.0257C186.825 13.5663 186.323 14.1802 186.114 14.7177C186.035 14.9214 186.012 15.2943 186.011 15.7063C185.859 15.3638 185.682 15.0037 185.495 14.7054C185.282 14.365 185.046 14.0983 184.826 13.9605C184.401 13.6953 183.934 13.6093 183.463 13.6311C183.869 13.0161 184.116 12.3189 184.213 11.588Z" fill="#AB92F0"/>
</g>
<g clip-path="url(#clip2_2_2958)">
<path fill-rule="evenodd" clip-rule="evenodd" d="M68.3295 68.4924C68.2649 68.351 68.2068 68.2096 68.1554 68.0663C68.0782 67.8515 68.0302 67.6271 67.9649 67.4091C67.9371 67.3167 67.8608 67.0767 67.8559 67.0405C67.8151 66.725 68.0484 66.6125 68.1181 66.5849C68.1516 66.5706 68.4981 66.435 68.6813 66.8104C68.9056 67.2695 69.0666 67.749 69.1611 68.2357C69.348 68.6209 69.5899 68.9896 69.8642 69.3086C70.9559 70.577 72.3304 70.3604 73.7749 69.9591C73.9967 69.8961 74.2285 70.0213 74.2994 70.2395C74.3709 70.4594 74.2568 70.6969 74.0405 70.7763C73.252 71.0714 71.9898 72.1054 71.6744 72.9142C71.6084 73.0835 71.6394 73.4409 71.6492 73.7969C71.6621 74.2912 71.6525 74.7861 71.5556 75.019C71.5413 75.0549 71.3523 75.4339 71.2834 75.5005C71.1175 75.6591 70.9454 75.6392 70.8419 75.6063C70.7383 75.5734 70.6084 75.4887 70.519 75.3146C70.4254 75.1327 70.3546 74.7271 70.3253 74.644C70.2192 74.3424 69.9957 73.7547 69.7309 73.269C69.5882 73.0076 69.4469 72.7689 69.293 72.6728C68.7235 72.317 68.0348 72.5764 67.4601 72.8143C67.3939 72.8409 67.3282 72.8692 67.2621 72.8959C67.0388 73.0324 66.7956 73.1547 66.5319 73.2592C66.1339 73.4176 65.9651 73.0579 65.9547 73.0339C65.9323 72.981 65.8281 72.7057 66.1075 72.5095C66.1382 72.4888 66.3728 72.367 66.463 72.3197C66.5888 72.2538 66.7179 72.1943 66.8479 72.1363C68.1341 71.3242 68.5678 69.895 68.3295 68.4924ZM69.2165 69.8764C70.0396 70.8297 70.9852 71.1436 72.0021 71.128L72.002 71.1281C71.4905 71.5987 71.0537 72.1332 70.8717 72.6012C70.8026 72.7785 70.7825 73.1032 70.7821 73.4619C70.65 73.1637 70.4953 72.8501 70.3324 72.5905C70.1469 72.2941 69.9417 72.0619 69.7501 71.942C69.3803 71.711 68.9739 71.6362 68.5635 71.6552C68.9174 71.1197 69.1319 70.5128 69.2165 69.8764Z" fill="#FFCEC4"/>
</g>
<g clip-path="url(#clip3_2_2958)">
<path fill-rule="evenodd" clip-rule="evenodd" d="M43.2728 34.4152C43.2081 34.2738 43.1501 34.1324 43.0987 33.9892C43.0215 33.7744 42.9735 33.5499 42.9081 33.332C42.8803 33.2395 42.804 32.9995 42.7992 32.9633C42.7583 32.6478 42.9917 32.5353 43.0614 32.5077C43.0948 32.4934 43.4413 32.3578 43.6245 32.7333C43.8488 33.1923 44.0098 33.6719 44.1044 34.1585C44.2912 34.5437 44.5331 34.9124 44.8075 35.2314C45.8991 36.4999 47.2736 36.2832 48.7181 35.8819C48.94 35.8189 49.1717 35.9441 49.2427 36.1623C49.3141 36.3823 49.2001 36.6198 48.9837 36.6991C48.1952 36.9943 46.9331 38.0282 46.6176 38.837C46.5517 39.0063 46.5827 39.3637 46.5924 39.7197C46.6053 40.214 46.5958 40.7089 46.4989 40.9418C46.4846 40.9778 46.2955 41.3567 46.2267 41.4233C46.0608 41.5819 45.8887 41.562 45.7851 41.5291C45.6816 41.4962 45.5517 41.4115 45.4622 41.2374C45.3687 41.0555 45.2978 40.6499 45.2686 40.5668C45.1624 40.2652 44.939 39.6775 44.6742 39.1919C44.5315 38.9304 44.3901 38.6917 44.2363 38.5956C43.6667 38.2398 42.9781 38.4992 42.4033 38.7371C42.3371 38.7637 42.2714 38.7921 42.2054 38.8187C41.9821 38.9552 41.7388 39.0775 41.4752 39.182C41.0771 39.3404 40.9083 38.9807 40.898 38.9567C40.8756 38.9038 40.7713 38.6285 41.0507 38.4323C41.0814 38.4116 41.316 38.2899 41.4063 38.2425C41.5321 38.1767 41.6611 38.1171 41.7912 38.0591C43.0773 37.2471 43.511 35.8178 43.2728 34.4152ZM44.1597 35.7992C44.9828 36.7525 45.9284 37.0665 46.9454 37.0509L46.9452 37.0509C46.4337 37.5216 45.997 38.056 45.815 38.524C45.7458 38.7013 45.7258 39.026 45.7254 39.3847C45.5932 39.0865 45.4386 38.773 45.2757 38.5133C45.0901 38.217 44.885 37.9847 44.6934 37.8648C44.3236 37.6338 43.9171 37.559 43.5067 37.578C43.8606 37.0425 44.0751 36.4356 44.1597 35.7992Z" fill="#4ADE80"/>
</g>
<g clip-path="url(#clip4_2_2958)">
<path fill-rule="evenodd" clip-rule="evenodd" d="M4.18424 83.5265C4.11957 83.385 4.06152 83.2436 4.01013 83.1004C3.93294 82.8856 3.88494 82.6612 3.81958 82.4432C3.79178 82.3507 3.71551 82.1107 3.71064 82.0746C3.6698 81.759 3.90315 81.6465 3.97283 81.619C4.00627 81.6046 4.35277 81.469 4.53598 81.8445C4.76031 82.3035 4.92128 82.7831 5.01582 83.2698C5.20271 83.655 5.44458 84.0237 5.71896 84.3426C6.81061 85.6111 8.18509 85.3944 9.62961 84.9931C9.85143 84.9301 10.0832 85.0553 10.1542 85.2736C10.2256 85.4935 10.1115 85.731 9.89517 85.8104C9.10669 86.1055 7.84452 87.1394 7.52908 87.9483C7.46313 88.1176 7.49414 88.475 7.50389 88.8309C7.5168 89.3252 7.50724 89.8202 7.41034 90.0531C7.39606 90.089 7.20698 90.4679 7.13813 90.5345C6.97226 90.6932 6.80013 90.6733 6.69659 90.6403C6.59304 90.6074 6.46312 90.5227 6.37367 90.3487C6.28016 90.1668 6.20929 89.7612 6.18006 89.678C6.07391 89.3764 5.85044 88.7887 5.58562 88.3031C5.44295 88.0416 5.30158 87.803 5.14773 87.7068C4.5782 87.351 3.88954 87.6105 3.31479 87.8483C3.24861 87.875 3.18287 87.9033 3.11686 87.9299C2.89352 88.0665 2.65029 88.1887 2.38663 88.2932C1.9886 88.4516 1.81979 88.0919 1.80944 88.0679C1.78706 88.015 1.68278 87.7397 1.96221 87.5435C1.99288 87.5228 2.2275 87.4011 2.31774 87.3537C2.44354 87.2879 2.57261 87.2283 2.70264 87.1703C3.98877 86.3583 4.42251 84.9291 4.18424 83.5265ZM5.07118 84.9105C5.89428 85.8638 6.83987 86.1777 7.85684 86.1621L7.85668 86.1621C7.34519 86.6328 6.90843 87.1673 6.72645 87.6353C6.65729 87.8126 6.63726 88.1373 6.63685 88.496C6.50468 88.1978 6.35002 87.8842 6.18715 87.6246C6.00159 87.3282 5.79646 87.0959 5.60484 86.976C5.23504 86.7451 4.82858 86.6702 4.41818 86.6892C4.77207 86.1538 4.98658 85.5468 5.07118 84.9105Z" fill="white"/>
</g>
<g clip-path="url(#clip5_2_2958)">
<path fill-rule="evenodd" clip-rule="evenodd" d="M252.245 77.1117C252.188 76.9872 252.137 76.8628 252.092 76.7367C252.024 76.5477 251.982 76.3502 251.924 76.1584C251.9 76.077 251.833 75.8658 251.828 75.834C251.792 75.5563 251.998 75.4574 252.059 75.4331C252.089 75.4205 252.393 75.3011 252.555 75.6315C252.752 76.0355 252.894 76.4575 252.977 76.8858C253.141 77.2248 253.354 77.5492 253.596 77.8299C254.556 78.9461 255.766 78.7555 257.037 78.4023C257.232 78.3469 257.436 78.457 257.499 78.6491C257.561 78.8426 257.461 79.0516 257.271 79.1215C256.577 79.3812 255.466 80.2911 255.189 81.0028C255.131 81.1518 255.158 81.4663 255.166 81.7796C255.178 82.2145 255.169 82.6501 255.084 82.855C255.072 82.8866 254.905 83.2201 254.845 83.2787C254.699 83.4183 254.547 83.4008 254.456 83.3718C254.365 83.3429 254.251 83.2683 254.172 83.1152C254.09 82.9551 254.027 82.5982 254.001 82.525C253.908 82.2596 253.711 81.7424 253.478 81.3151C253.353 81.085 253.228 80.875 253.093 80.7904C252.592 80.4772 251.986 80.7056 251.48 80.9149C251.422 80.9383 251.364 80.9632 251.306 80.9867C251.109 81.1068 250.895 81.2144 250.663 81.3064C250.313 81.4458 250.164 81.1292 250.155 81.1081C250.136 81.0616 250.044 80.8193 250.29 80.6467C250.317 80.6284 250.523 80.5213 250.603 80.4796C250.713 80.4217 250.827 80.3693 250.941 80.3182C252.073 79.6037 252.455 78.3459 252.245 77.1117ZM253.026 78.3296C253.75 79.1685 254.582 79.4447 255.477 79.431L255.477 79.431C255.027 79.8452 254.642 80.3156 254.482 80.7274C254.421 80.8834 254.404 81.1691 254.403 81.4848C254.287 81.2224 254.151 80.9464 254.008 80.718C253.844 80.4572 253.664 80.2528 253.495 80.1473C253.17 79.944 252.812 79.8782 252.451 79.8949C252.762 79.4237 252.951 78.8896 253.026 78.3296Z" fill="white"/>
</g>
<circle cx="100.227" cy="36.0817" r="2.50681" stroke="white"/>
<circle opacity="0.5" cx="119.27" cy="2.00454" r="1.50454" stroke="white"/>
<defs>
<clipPath id="clip0_2_2958">
<rect width="22.2734" height="22.2734" fill="white" transform="translate(197.636 53.7761) scale(1.00227) rotate(-15)"/>
</clipPath>
<clipPath id="clip1_2_2958">
<rect width="11.0587" height="11.0587" fill="white" transform="translate(178.388 9.02484) scale(1.00227) rotate(-15)"/>
</clipPath>
<clipPath id="clip2_2_2958">
<rect width="9.62799" height="9.62799" fill="white" transform="translate(64.1453 67.6449) scale(1.00227) rotate(-15)"/>
</clipPath>
<clipPath id="clip3_2_2958">
<rect width="9.62799" height="9.62799" fill="white" transform="translate(39.0885 33.5677) scale(1.00227) rotate(-15)"/>
</clipPath>
<clipPath id="clip4_2_2958">
<rect width="9.62799" height="9.62799" fill="white" transform="translate(0 82.679) scale(1.00227) rotate(-15)"/>
</clipPath>
<clipPath id="clip5_2_2958">
<rect width="8.47256" height="8.47256" fill="white" transform="translate(248.563 76.3658) scale(1.00227) rotate(-15)"/>
</clipPath>
</defs>
</svg>
