<svg width="20" height="24" viewBox="0 0 20 24" fill="none" xmlns="http://www.w3.org/2000/svg">
<g clip-path="url(#clip0_0_38)">
<path d="M19.5809 18.5336C19.2218 19.3645 18.7967 20.1293 18.3043 20.8325C17.633 21.791 17.0834 22.4546 16.6599 22.823C16.0032 23.4278 15.2997 23.7376 14.5464 23.7552C14.0056 23.7552 13.3534 23.601 12.5942 23.2884C11.8325 22.9771 11.1325 22.823 10.4925 22.823C9.82121 22.823 9.10129 22.9771 8.33125 23.2884C7.56003 23.601 6.93875 23.764 6.46374 23.7801C5.74132 23.811 5.02126 23.4924 4.30251 22.823C3.84377 22.4223 3.26997 21.7353 2.58259 20.762C1.84509 19.7227 1.23875 18.5175 0.763741 17.1435C0.25502 15.6594 0 14.2223 0 12.8309C0 11.2372 0.343838 9.86257 1.03254 8.71066C1.5738 7.78541 2.29386 7.05554 3.19508 6.51973C4.0963 5.98393 5.07007 5.71089 6.11873 5.69342C6.69252 5.69342 7.44498 5.87119 8.38005 6.22056C9.31249 6.57111 9.9112 6.74888 10.1737 6.74888C10.3699 6.74888 11.035 6.54102 12.1626 6.12661C13.2288 5.7423 14.1287 5.58318 14.8659 5.64586C16.8636 5.80733 18.3644 6.59607 19.3625 8.01705C17.5759 9.10128 16.6921 10.6199 16.7097 12.568C16.7258 14.0854 17.2754 15.3482 18.3556 16.3508C18.8451 16.8161 19.3918 17.1758 20 17.4312C19.8681 17.8143 19.7289 18.1813 19.5809 18.5336ZM14.9993 0.4763C14.9993 1.66565 14.5655 2.77615 13.7007 3.80401C12.6572 5.02594 11.395 5.73203 10.0263 5.62061C10.0088 5.47792 9.9987 5.32775 9.9987 5.16995C9.9987 4.02817 10.495 2.80624 11.3762 1.80715C11.8162 1.30129 12.3758 0.880678 13.0544 0.545146C13.7315 0.214621 14.372 0.0318332 14.9744 0.000531597C14.992 0.15953 14.9993 0.318538 14.9993 0.476284V0.4763Z" fill="black"/>
</g>
<defs>
<clipPath id="clip0_0_38">
<rect width="19.5185" height="23.2091" fill="white" transform="scale(1.02467)"/>
</clipPath>
</defs>
</svg>
