<svg width="30" height="31" viewBox="0 0 30 31" fill="none" xmlns="http://www.w3.org/2000/svg">
<path d="M15 0C12.0333 0 9.13319 0.909055 6.66646 2.61222C4.19972 4.31538 2.27713 6.73615 1.14181 9.56841C0.00649929 12.4007 -0.290551 15.5172 0.288227 18.5239C0.867006 21.5306 2.29561 24.2924 4.39339 26.4602C6.49118 28.6279 9.16394 30.1041 12.0737 30.7022C14.9834 31.3002 17.9994 30.9933 20.7402 29.8201C23.4811 28.647 25.8238 26.6603 27.472 24.1113C29.1203 21.5624 30 18.5656 30 15.5C30 11.3891 28.4196 7.44666 25.6066 4.53984C22.7936 1.63303 18.9783 0 15 0ZM15 4.65C15.89 4.65 16.76 4.92272 17.5001 5.43367C18.2401 5.94462 18.8169 6.67085 19.1575 7.52052C19.498 8.3702 19.5872 9.30515 19.4135 10.2072C19.2399 11.1092 18.8113 11.9377 18.182 12.588C17.5526 13.2384 16.7508 13.6812 15.8779 13.8606C15.005 14.0401 14.1002 13.948 13.2779 13.596C12.4557 13.2441 11.7529 12.6481 11.2584 11.8834C10.7639 11.1187 10.5 10.2197 10.5 9.29999C10.5002 8.06685 10.9743 6.88427 11.8182 6.01237C12.6621 5.14047 13.8066 4.65065 15 4.65065V4.65ZM15 27.0359C13.2223 27.0275 11.4735 26.571 9.90512 25.7061C8.33678 24.8412 6.99632 23.594 6.00001 22.0726C6.07189 18.9726 12 17.2664 15 17.2664C18 17.2664 23.9281 18.9726 24 22.0726C23.0026 23.5929 21.6619 24.8392 20.0938 25.704C18.5257 26.5687 16.7774 27.0258 15 27.0359Z" fill="white"/>
</svg>
