<svg width="201" height="203" viewBox="0 0 201 203" fill="none" xmlns="http://www.w3.org/2000/svg">
<g clip-path="url(#clip0_2_7206)">
<path d="M177.294 77.2848C166.039 33.1648 127.149 1.3163 81.5014 0.0388782C57.3688 -0.636453 31.9745 7.34248 13.4856 35.2637C-19.5653 85.1758 15.5167 119.667 39.9749 136.056C51.7912 143.99 62.4383 153.53 71.6079 164.4C88.1286 183.943 119.911 208.229 157.762 170.177C185.196 142.597 184.791 106.673 177.294 77.2848Z" fill="#F2F2F2"/>
<path d="M196.541 178.875C196.541 187.571 155.518 203 104.914 203C54.3106 203 18.0912 171.734 18.0912 163.038C18.0912 154.342 54.3106 171.509 104.914 171.509C155.518 171.509 196.541 170.179 196.541 178.875Z" fill="#3F3D56"/>
<path opacity="0.1" d="M196.541 178.875C196.541 187.571 155.518 203 104.914 203C54.3106 203 18.0912 171.734 18.0912 163.038C18.0912 154.342 54.3106 171.509 104.914 171.509C155.518 171.509 196.541 170.179 196.541 178.875Z" fill="black"/>
<path d="M196.541 178.783C196.541 187.479 155.518 194.529 104.914 194.529C54.3106 194.529 18.0912 171.734 18.0912 163.038C18.0912 154.342 54.3106 163.038 104.914 163.038C155.518 163.038 196.541 170.087 196.541 178.783Z" fill="#3F3D56"/>
<g opacity="0.7">
<path opacity="0.7" d="M193.507 47.3939C190.184 53.8247 179.65 61.4024 173.199 58.0892C166.749 54.776 166.824 41.8266 170.147 35.3958C171.743 32.3082 174.505 29.9792 177.823 28.921C181.142 27.8628 184.746 28.162 187.844 29.7529C190.941 31.3438 193.278 34.096 194.34 37.4042C195.402 40.7125 195.103 44.3058 193.507 47.3939Z" fill="#1DAB87"/>
<path opacity="0.7" d="M173.745 59.7898C173.538 59.3869 173.209 59.0588 172.806 58.8514C172.402 58.644 171.943 58.5678 171.494 58.6333L172.654 56.3887L174.905 57.5451L173.745 59.7898Z" fill="#1DAB87"/>
<path opacity="0.7" d="M172.104 57.4663C172.363 57.8226 172.703 58.1126 173.095 58.3124C173.488 58.5122 173.923 58.6161 174.365 58.6156" stroke="#2F2E41" stroke-width="2" stroke-miterlimit="10"/>
<path opacity="0.4" d="M191.682 40.2433C192.523 38.6162 192.102 36.731 190.742 36.0324C189.382 35.3338 187.598 36.0865 186.757 37.7136C185.916 39.3407 186.337 41.226 187.697 41.9245C189.057 42.6231 190.842 41.8704 191.682 40.2433Z" fill="white"/>
<path opacity="0.7" d="M173.139 58.1699L163.337 82.7607" stroke="#2F2E41" stroke-width="2" stroke-miterlimit="10"/>
</g>
<path d="M195.577 86.842C188.3 94.16 170.737 99.9592 163.396 92.7054C156.055 85.4516 161.717 67.8917 168.994 60.5737C172.488 57.0615 177.239 55.0768 182.201 55.0558C187.164 55.0349 191.931 56.9795 195.456 60.4621C198.98 63.9447 200.973 68.6802 200.995 73.6271C201.018 78.574 199.069 83.3274 195.577 86.842Z" fill="#FF6584"/>
<path d="M163.407 95.2483C163.298 94.6125 162.993 94.0266 162.533 93.5725C162.074 93.1185 161.483 92.8192 160.845 92.7164L163.385 90.1621L165.947 92.694L163.407 95.2483Z" fill="#FF6584"/>
<path d="M162.175 91.3921C162.374 91.9864 162.711 92.5254 163.159 92.9645C163.607 93.4036 164.153 93.7304 164.752 93.918" stroke="#2F2E41" stroke-width="2" stroke-miterlimit="10"/>
<path d="M162.907 93.3223L138.779 117.588" stroke="#2F2E41" stroke-width="2" stroke-miterlimit="10"/>
<path opacity="0.4" d="M196.168 76.3491C198.009 74.4975 198.247 71.7568 196.699 70.2273C195.151 68.6979 192.404 68.959 190.563 70.8106C188.722 72.6621 188.485 75.4029 190.032 76.9323C191.58 78.4617 194.327 78.2006 196.168 76.3491Z" fill="white"/>
<path d="M172.834 63.1343C170.436 73.1571 158.459 87.2159 148.406 84.8257C138.352 82.4354 134.028 64.5013 136.426 54.4785C137.58 49.6682 140.603 45.5116 144.83 42.9224C149.057 40.3332 154.142 39.5233 158.968 40.6706C163.794 41.8179 167.966 44.8287 170.566 49.041C173.166 53.2533 173.982 58.3225 172.834 63.1343Z" fill="#1DAB87"/>
<path d="M149.742 86.9924C149.317 86.5057 148.751 86.1636 148.121 86.014C147.492 85.8643 146.832 85.9147 146.232 86.1581L147.069 82.6597L150.579 83.494L149.742 86.9924Z" fill="#1DAB87"/>
<path d="M146.678 84.3369C147.157 84.7418 147.726 85.0273 148.338 85.1701C148.95 85.3129 149.587 85.3089 150.197 85.1583" stroke="#2F2E41" stroke-width="2" stroke-miterlimit="10"/>
<path opacity="0.4" d="M167.866 53.8652C168.472 51.3293 167.246 48.865 165.126 48.3611C163.006 47.8571 160.796 49.5043 160.189 52.0402C159.583 54.5761 160.809 57.0404 162.929 57.5444C165.049 58.0483 167.259 56.4011 167.866 53.8652Z" fill="white"/>
<path d="M148.35 85.6021L140.399 118.836" stroke="#2F2E41" stroke-width="2" stroke-miterlimit="10"/>
<g opacity="0.8">
<path opacity="0.8" d="M61.3931 151.017C56.1667 156.087 43.7023 159.956 38.6165 154.745C33.5307 149.535 37.7493 137.219 42.9757 132.149C44.2185 130.944 45.6873 129.994 47.2982 129.354C48.9091 128.715 50.6306 128.398 52.3645 128.421C54.0983 128.445 55.8106 128.809 57.4034 129.492C58.9962 130.175 60.4384 131.164 61.6477 132.403C62.8571 133.642 63.8097 135.106 64.4514 136.712C65.0931 138.318 65.4112 140.034 65.3875 141.763C65.3639 143.491 64.999 145.198 64.3136 146.786C63.6282 148.374 62.6358 149.812 61.3931 151.017Z" fill="#1DAB87"/>
<path opacity="0.8" d="M38.592 156.539C38.5234 156.09 38.3154 155.672 37.9971 155.346C37.6787 155.02 37.2661 154.801 36.8168 154.721L38.6411 152.951L40.4162 154.77L38.592 156.539Z" fill="#1DAB87"/>
<path opacity="0.8" d="M37.7722 153.803C37.9045 154.225 38.1354 154.609 38.4459 154.925C38.7564 155.24 39.1375 155.478 39.5581 155.618" stroke="#2F2E41" stroke-width="2" stroke-miterlimit="10"/>
<path opacity="0.4" d="M61.9443 143.623C63.2666 142.34 63.4693 140.41 62.397 139.311C61.3247 138.212 59.3835 138.362 58.0611 139.645C56.7387 140.927 56.536 142.858 57.6083 143.956C58.6807 145.055 60.6219 144.906 61.9443 143.623Z" fill="white"/>
</g>
<path d="M118.117 44.1738H121.789C124.197 44.1738 126.508 45.1278 128.211 46.8258C129.914 48.5239 130.871 50.8269 130.871 53.2283V65.9432H109.034V53.2283C109.034 52.0393 109.269 50.8619 109.726 49.7633C110.182 48.6648 110.851 47.6666 111.694 46.8258C112.538 45.985 113.539 45.3181 114.641 44.8631C115.743 44.408 116.924 44.1738 118.117 44.1738Z" fill="#2F2E41"/>
<path d="M107.695 100.857L104.939 106.634C104.939 106.634 102.692 114.393 105.238 115.223C107.783 116.052 108.28 107.26 108.28 107.26L110.388 101.438L107.695 100.857Z" fill="#FFB9B9"/>
<path opacity="0.1" d="M107.695 100.857L104.939 106.634C104.939 106.634 102.692 114.393 105.238 115.223C107.783 116.052 108.28 107.26 108.28 107.26L110.388 101.438L107.695 100.857Z" fill="black"/>
<path d="M108.217 91.8169L104.731 103.978L110.25 106.873V92.3959L108.217 91.8169Z" fill="#575A89"/>
<path d="M117.656 59.5329C117.656 59.5329 117.366 64.1656 116.785 64.1656C116.204 64.1656 115.042 69.667 115.042 69.667L119.98 72.852L126.079 67.3506L124.336 63.0074C124.336 63.0074 123.465 61.2701 123.755 59.5329C124.046 57.7956 117.656 59.5329 117.656 59.5329Z" fill="#FFB9B9"/>
<path opacity="0.1" d="M117.656 59.5329C117.656 59.5329 117.366 64.1656 116.785 64.1656C116.204 64.1656 115.042 69.667 115.042 69.667L119.98 72.852L126.079 67.3506L124.336 63.0074C124.336 63.0074 123.465 61.2701 123.755 59.5329C124.046 57.7956 117.656 59.5329 117.656 59.5329Z" fill="black"/>
<path d="M135.954 105.57L136.535 111.94C136.535 111.94 138.568 119.758 141.182 119.179C143.796 118.6 139.73 110.782 139.73 110.782L138.568 104.702L135.954 105.57Z" fill="#FFB9B9"/>
<path d="M123.465 168.402C123.465 168.402 125.208 179.115 124.046 181.142C122.884 183.169 125.208 183.458 125.208 183.458L132.178 181.721V178.536C132.178 178.536 129.855 168.112 129.855 167.533C129.855 166.954 123.465 168.402 123.465 168.402Z" fill="#FFB9B9"/>
<path d="M109.233 120.337C109.233 120.337 111.266 141.184 114.461 147.844C117.656 154.504 120.56 172.745 122.013 173.035C123.465 173.324 134.502 171.297 135.954 170.139C137.406 168.981 126.079 140.895 126.079 140.605C126.079 140.316 123.465 114.546 123.465 114.546L119.98 108.755L109.233 120.337Z" fill="#2F2E41"/>
<path opacity="0.1" d="M109.233 120.337C109.233 120.337 111.266 141.184 114.461 147.844C117.656 154.504 120.56 172.745 122.013 173.035C123.465 173.324 134.502 171.297 135.954 170.139C137.406 168.981 126.079 140.895 126.079 140.605C126.079 140.316 123.465 114.546 123.465 114.546L119.98 108.755L109.233 120.337Z" fill="black"/>
<path d="M126.079 180.563C126.079 180.563 123.174 179.115 122.594 179.984L120.27 183.458C120.27 183.458 110.395 188.091 113.88 188.67C117.366 189.249 124.046 189.249 124.917 188.67C125.788 188.091 135.373 182.879 135.083 182.59C134.792 182.3 132.469 176.22 132.178 176.799C131.888 177.378 127.822 181.721 126.079 180.563Z" fill="#2F2E41"/>
<path d="M77.2842 155.951C77.2842 155.951 70.6039 160.584 67.409 159.715C64.2141 158.847 67.409 166.085 67.409 166.085L73.2179 169.27L74.9606 167.823C74.9606 167.823 81.0599 159.715 83.674 159.426C86.288 159.136 77.2842 155.951 77.2842 155.951Z" fill="#FFB9B9"/>
<path d="M107.49 102.965L108.652 109.045L86.8688 142.053C86.8688 142.053 73.7988 155.083 74.9606 156.531C76.1224 157.978 83.3835 166.375 85.1262 165.217C86.8688 164.059 127.241 120.627 126.95 114.836C126.66 109.045 117.075 98.0425 117.075 98.0425L107.49 102.386V102.965Z" fill="#2F2E41"/>
<path d="M68.8613 161.742C68.8613 161.742 71.4753 158.847 70.023 158.557C68.3897 158.27 66.7411 158.077 65.0855 157.978C64.5046 157.978 56.6626 153.925 56.0817 155.372C55.5008 156.82 59.567 164.348 61.8906 165.217C64.2142 166.086 72.637 172.166 72.637 172.166C72.637 172.166 76.9937 168.402 76.4128 167.533C75.8319 166.665 67.6995 164.927 68.8613 161.742Z" fill="#2F2E41"/>
<path d="M119.98 62.428C123.829 62.428 126.95 59.3168 126.95 55.4789C126.95 51.641 123.829 48.5298 119.98 48.5298C116.13 48.5298 113.009 51.641 113.009 55.4789C113.009 59.3168 116.13 62.428 119.98 62.428Z" fill="#FFB9B9"/>
<path d="M121.432 65.9028C121.432 65.9028 116.494 66.1924 115.042 65.3237C113.59 64.4551 110.395 77.1951 110.395 77.1951L108.362 93.9887C108.362 93.9887 108.071 96.0156 108.362 97.1737C108.652 98.3319 105.457 96.5947 106.619 99.7797C107.781 102.965 105.748 104.412 107.781 104.702C109.814 104.991 120.56 100.648 120.56 100.648L125.498 74.8787L126.95 64.4551L121.432 65.9028Z" fill="#D0CDE1"/>
<path d="M117.137 63.5505C117.137 63.5505 114.461 63.0072 113.59 63.5863C112.718 64.1654 109.524 68.5086 109.524 69.6668C109.524 70.825 108.362 83.565 108.362 84.7232C108.362 85.8813 107.49 91.9618 107.49 92.5409C107.49 93.12 108.235 95.6089 108.235 95.6089L110.104 92.2513C110.104 92.2513 109.524 87.9082 111.557 80.9591C113.59 74.01 117.137 63.5505 117.137 63.5505Z" fill="#575A89"/>
<path d="M119.98 67.9294C119.98 67.9294 123.86 61.849 124.098 62.428C124.336 63.0071 128.693 63.8758 128.693 63.8758C128.693 63.8758 136.535 69.3771 135.954 71.6935C135.373 74.0099 131.307 91.3826 131.307 91.3826C131.307 91.3826 127.531 100.358 130.436 106.729C133.34 113.098 129.855 115.415 129.855 115.415C129.855 115.415 127.531 116.573 128.112 117.731C128.693 118.889 121.432 123.233 120.56 120.048C119.689 116.863 108.943 97.7526 111.266 90.8035C113.59 83.8544 119.98 67.9294 119.98 67.9294Z" fill="#575A89"/>
<path d="M134.502 70.8252C134.502 70.8252 137.697 76.9056 137.116 77.7743C136.535 78.6429 139.149 83.8547 139.149 83.8547C138.968 84.3205 138.968 84.8367 139.149 85.3025C139.439 86.1711 141.182 89.9352 141.182 91.3829C141.182 92.8306 140.892 97.4634 141.182 99.4902C141.473 101.517 145.248 106.439 142.053 106.729C138.858 107.018 133.63 109.624 133.921 106.729C134.211 103.833 135.083 96.8843 133.921 95.7261C132.759 94.5679 131.888 94.5679 132.469 93.1202C133.05 91.6724 129.855 87.9084 129.855 87.9084L134.502 70.8252Z" fill="#575A89"/>
<path d="M125.804 53.767H114.779L112.283 48.0479H127.676L125.804 53.767Z" fill="#2F2E41"/>
<path d="M113.333 57.9521C113.627 57.867 113.681 57.1634 113.454 56.3805C113.226 55.5976 112.803 55.0319 112.508 55.117C112.214 55.202 112.16 55.9057 112.387 56.6886C112.615 57.4715 113.038 58.0372 113.333 57.9521Z" fill="#FFB9B9"/>
<path d="M127.333 56.6884C127.561 55.9055 127.507 55.2018 127.212 55.1167C126.918 55.0317 126.494 55.5974 126.267 56.3803C126.039 57.1632 126.093 57.8668 126.388 57.9519C126.682 58.037 127.106 57.4713 127.333 56.6884Z" fill="#FFB9B9"/>
<path d="M192.485 166.84C192.485 173.565 188.474 175.914 183.527 175.914C183.412 175.914 183.297 175.912 183.184 175.911C182.954 175.904 182.727 175.894 182.503 175.878C178.038 175.564 174.57 173.095 174.57 166.84C174.57 160.368 182.864 152.202 183.49 151.595C183.49 151.595 183.49 151.595 183.491 151.595C183.491 151.595 183.491 151.594 183.491 151.594C183.491 151.594 183.491 151.594 183.491 151.594C183.491 151.594 183.491 151.593 183.491 151.593C183.515 151.571 183.527 151.559 183.527 151.559C183.527 151.559 192.485 160.114 192.485 166.84Z" fill="#F2F2F2"/>
<path d="M183.201 174.885L186.476 170.322L183.193 175.386L183.184 175.911C182.954 175.904 182.727 175.894 182.503 175.878L182.856 169.151L182.853 169.098L182.859 169.089L182.893 168.452L179.601 163.376L182.903 167.975L182.91 168.111L183.178 163.028L180.359 157.781L183.212 162.134L183.49 151.595L183.491 151.559V151.593L183.445 159.905L186.251 156.61L183.432 160.621L183.359 165.173L185.979 160.805L183.349 165.842L183.307 168.373L187.11 162.294L183.293 169.256L183.201 174.885Z" fill="#3F3D56"/>
</g>
<defs>
<clipPath id="clip0_2_7206">
<rect width="201" height="203" fill="white"/>
</clipPath>
</defs>
</svg>
