<svg width="24" height="24" viewBox="0 0 24 24" fill="none" xmlns="http://www.w3.org/2000/svg">
<path d="M0 12C2.78232e-07 8.8174 1.26428 5.76515 3.51472 3.51472C5.76515 1.26428 8.8174 3.41443e-07 12 0C15.1826 -3.41443e-07 18.2348 1.26428 20.4853 3.51472C22.7357 5.76515 24 8.8174 24 12L12 12L0 12Z" fill="#1D3A70"/>
<path d="M24 12C24 13.5759 23.6896 15.1363 23.0866 16.5922C22.4835 18.0481 21.5996 19.371 20.4853 20.4853C19.371 21.5996 18.0481 22.4835 16.5922 23.0866C15.1363 23.6896 13.5758 24 12 24C10.4241 24 8.86367 23.6896 7.40776 23.0865C5.95185 22.4835 4.62898 21.5996 3.51468 20.4852C2.40038 19.3709 1.51647 18.0481 0.913423 16.5921C0.310373 15.1362 -8.77904e-06 13.5758 1.8622e-10 11.9999L12 12H24Z" fill="#FFB9AA"/>
</svg>
