<svg width="16" height="12" viewBox="0 0 16 12" fill="none" xmlns="http://www.w3.org/2000/svg">
<path d="M13.973 12H2.02699C1.48956 11.9994 0.974323 11.7794 0.594317 11.3884C0.214311 10.9974 0.000570241 10.4672 0 9.91427V7.10454C0 3.18704 3.58884 0 8 0C12.4112 0 16 3.18705 16 7.10454V9.91427C15.9994 10.4672 15.7857 10.9974 15.4057 11.3884C15.0257 11.7794 14.5104 11.9994 13.973 12ZM8 0.775087C4.00414 0.775087 0.753339 3.61433 0.753339 7.10453V9.91426C0.75368 10.2617 0.887967 10.5949 1.12674 10.8406C1.36552 11.0863 1.68928 11.2245 2.02699 11.2249H13.973C14.3107 11.2245 14.6345 11.0863 14.8733 10.8406C15.112 10.5949 15.2463 10.2617 15.2467 9.91426V7.10453C15.2467 3.61433 11.9959 0.775087 8 0.775087Z" fill="white"/>
</svg>
