<svg width="21" height="25" viewBox="0 0 21 25" fill="none" xmlns="http://www.w3.org/2000/svg">
<path d="M5.96594 23.9377L6.39537 21.2101L5.43881 21.1879H0.871179L4.04545 1.06095C4.0549 0.999458 4.08614 0.943404 4.13346 0.903012C4.18079 0.86262 4.24105 0.840579 4.30327 0.840907H12.0049C14.5618 0.840907 16.3263 1.37296 17.2475 2.42312C17.6794 2.91576 17.9544 3.43057 18.0875 3.99712C18.227 4.59157 18.2295 5.3018 18.0932 6.16804L18.0834 6.23126V6.78631L18.5152 7.03098C18.845 7.19802 19.1413 7.42398 19.3897 7.6977C19.7592 8.11891 19.9981 8.65425 20.0991 9.28894C20.2034 9.94169 20.1689 10.7184 19.9981 11.5978C19.801 12.6094 19.4825 13.4904 19.0522 14.2113C18.6726 14.8571 18.1622 15.4164 17.5538 15.8534C16.9823 16.259 16.3033 16.5669 15.5356 16.764C14.7917 16.9578 13.9435 17.0555 13.0132 17.0555H12.4138C11.9852 17.0555 11.569 17.2098 11.2422 17.4865C10.9158 17.7662 10.6994 18.1526 10.6313 18.5769L10.5861 18.8224L9.82746 23.6298L9.79297 23.8064C9.78394 23.8622 9.76834 23.8901 9.74535 23.909C9.72308 23.9272 9.69529 23.9373 9.66653 23.9377H5.96594Z" fill="#253B80"/>
<path d="M18.924 6.29572C18.901 6.44269 18.8748 6.59294 18.8452 6.74731C17.8295 11.9619 14.3547 13.7634 9.91684 13.7634H7.65724C7.11451 13.7634 6.65718 14.1575 6.57261 14.6928L5.41571 22.03L5.0881 24.1097C5.07505 24.1922 5.08004 24.2766 5.10271 24.357C5.12538 24.4374 5.16521 24.5119 5.21944 24.5754C5.27367 24.6389 5.34103 24.6899 5.41687 24.7249C5.49271 24.7599 5.57523 24.7781 5.65875 24.7781H9.66641C10.141 24.7781 10.5441 24.4332 10.6189 23.9652L10.6583 23.7616L11.4128 18.9731L11.4613 18.7104C11.5352 18.2407 11.9391 17.8959 12.4137 17.8959H13.0131C16.896 17.8959 19.9356 16.3194 20.824 11.7575C21.1951 9.85179 21.003 8.26055 20.021 7.14142C19.7097 6.79523 19.338 6.50864 18.924 6.29572Z" fill="#179BD7"/>
<path d="M17.8616 5.87143C17.5373 5.77762 17.2074 5.7044 16.8738 5.65221C16.2148 5.55092 15.5487 5.50232 14.8819 5.50688H8.84538C8.61565 5.5067 8.39344 5.58871 8.2189 5.7381C8.04437 5.88748 7.92904 6.09438 7.89376 6.32138L6.6096 14.4549L6.57265 14.6922C6.61266 14.4333 6.74401 14.1973 6.94296 14.0268C7.1419 13.8563 7.39529 13.7626 7.65729 13.7628H9.91689C14.3548 13.7628 17.8296 11.9605 18.8452 6.7467C18.8756 6.59234 18.9011 6.44208 18.9241 6.29511C18.6561 6.15456 18.3767 6.03674 18.089 5.94287C18.0136 5.91784 17.9378 5.89403 17.8616 5.87143Z" fill="#222D65"/>
<path d="M7.89373 6.32145C7.92871 6.09438 8.04399 5.88739 8.21861 5.73808C8.39323 5.58877 8.61561 5.50705 8.84536 5.50777H14.8819C15.5971 5.50777 16.2646 5.55457 16.8738 5.6531C17.2861 5.71789 17.6927 5.8148 18.0898 5.94294C18.3895 6.04229 18.6679 6.1597 18.9249 6.29518C19.227 4.36811 18.9224 3.05604 17.8805 1.86794C16.7318 0.559973 14.6586 0 12.0057 0H4.304C3.76209 0 3.29982 0.394116 3.21607 0.930277L0.00813661 21.2642C-0.00680543 21.3586 -0.00112049 21.4551 0.0248004 21.5471C0.0507212 21.6391 0.0962628 21.7244 0.158292 21.7971C0.220322 21.8698 0.297368 21.9283 0.384129 21.9684C0.470891 22.0085 0.56531 22.0293 0.660891 22.0294H5.41573L6.60957 14.455L7.89373 6.32145Z" fill="#253B80"/>
</svg>
