<svg xmlns="http://www.w3.org/2000/svg" width="375" height="245" fill="none" viewBox="0 0 375 245"><mask id="mask0_2_5109" style="mask-type:alpha" width="375" height="245" x="0" y="0" maskUnits="userSpaceOnUse"><rect width="375" height="245" fill="#1DAB87"/></mask><g mask="url(#mask0_2_5109)"><path stroke="#fff" d="M89 192.333L89 172L39.5 172M89 192.333L89 231.983M89 192.333L72.5 212.667M89 192.333L57.65 192.333M-10 192.333L-10 172L6.5 172M-10 192.333L5.675 211.65M-10 192.333L23 192.333M-10 192.333L6.5 172M-10 192.333L-10 231.983M5.675 211.65L5.675 252.317M5.675 211.65L23 192.333M5.675 252.317L-10 271.633M5.675 252.317L-10 231.983M5.675 252.317L37.85 253.333M5.675 252.317L22.175 231.983M-10 271.633L-10 294L8.15 294M-10 271.633L8.15 294M-10 271.633L23 271.633M-10 271.633L-10 231.983M8.15 294L36.2 294M23 271.633L37.85 253.333M23 271.633L36.2 294M37.85 253.333L53.525 272.65M37.85 253.333L71.675 253.333M37.85 253.333L22.175 231.983M53.525 272.65L36.2 294M53.525 272.65L87.35 272.65M89 272.65L89 294L72.5 294M89 272.65L87.35 272.65M89 272.65L89 231.983M89 272.65L72.5 294M36.2 294L72.5 294M71.675 253.333L87.35 272.65M71.675 253.333L89 231.983M71.675 253.333L56 233M71.675 253.333L72.5 212.667M56 233L72.5 212.667M56 233L22.175 231.983M72.5 212.667L57.65 192.333M72.5 212.667L38.675 211.65M57.65 192.333L56 192.333M39.5 172L56 192.333M39.5 172L23 192.333M39.5 172L6.5 172M56 192.333L23 192.333M23 192.333L38.675 211.65M23 192.333L22.175 231.983M38.675 211.65L22.175 231.983" opacity=".1"/><path stroke="#fff" d="M392 -29.6667L392 -50L342.5 -50M392 -29.6667L392 9.98333M392 -29.6667L375.5 -9.33333M392 -29.6667L360.65 -29.6667M293 -29.6667L293 -50L309.5 -50M293 -29.6667L308.675 -10.35M293 -29.6667L326 -29.6667M293 -29.6667L309.5 -50M293 -29.6667L293 9.98333M308.675 -10.35L308.675 30.3167M308.675 -10.35L326 -29.6667M308.675 30.3167L293 49.6333M308.675 30.3167L293 9.98333M308.675 30.3167L340.85 31.3333M308.675 30.3167L325.175 9.98333M293 49.6333L293 72L311.15 72M293 49.6333L311.15 72M293 49.6333L326 49.6333M293 49.6333L293 9.98333M311.15 72L339.2 72M326 49.6333L340.85 31.3333M326 49.6333L339.2 72M340.85 31.3333L356.525 50.65M340.85 31.3333L374.675 31.3333M340.85 31.3333L325.175 9.98333M356.525 50.65L339.2 72M356.525 50.65L390.35 50.65M392 50.65L392 72L375.5 72M392 50.65L390.35 50.65M392 50.65L392 9.98333M392 50.65L375.5 72M339.2 72L375.5 72M374.675 31.3333L390.35 50.65M374.675 31.3333L392 9.98333M374.675 31.3333L359 11M374.675 31.3333L375.5 -9.33333M359 11L375.5 -9.33333M359 11L325.175 9.98333M375.5 -9.33333L360.65 -29.6667M375.5 -9.33333L341.675 -10.35M360.65 -29.6667L359 -29.6667M342.5 -50L359 -29.6667M342.5 -50L326 -29.6667M342.5 -50L309.5 -50M359 -29.6667L326 -29.6667M326 -29.6667L341.675 -10.35M326 -29.6667L325.175 9.98333M341.675 -10.35L325.175 9.98333" opacity=".1"/></g></svg>