<svg xmlns="http://www.w3.org/2000/svg" width="32" height="32" fill="none" viewBox="0 0 32 32"><path fill="#fff" d="M12 30C5.9247 30 1 25.0753 1 19C1 12.9247 5.9247 8 12 8C18.0753 8 23 12.9247 23 19C23 25.0753 18.0753 30 12 30ZM12 27.8C14.3339 27.8 16.5722 26.8729 18.2225 25.2225C19.8729 23.5722 20.8 21.3339 20.8 19C20.8 16.6661 19.8729 14.4278 18.2225 12.7775C16.5722 11.1271 14.3339 10.2 12 10.2C9.66609 10.2 7.42778 11.1271 5.77746 12.7775C4.12714 14.4278 3.2 16.6661 3.2 19C3.2 21.3339 4.12714 23.5722 5.77746 25.2225C7.42778 26.8729 9.66609 27.8 12 27.8ZM6.5 15.7L9.8 11.85L13.1 15.7H10.9V20.1H8.7V15.7H6.5ZM17.5 22.3L14.2 26.15L10.9 22.3H13.1V17.9H15.3V22.3H17.5Z"/></svg>