<svg width="88" height="88" viewBox="0 0 88 88" fill="none" xmlns="http://www.w3.org/2000/svg">
<circle cx="44" cy="44" r="44" fill="white"/>
<circle cx="44" cy="44" r="36" fill="#F3F4F6"/>
<path d="M54.3517 27.5343L22.2942 35.0002C21.0272 35.2953 20.2392 36.5617 20.5343 37.8288L24.9265 56.6882C25.2216 57.9553 26.488 58.7432 27.7551 58.4481L59.8125 50.9822C61.0795 50.6871 61.8675 49.4208 61.5724 48.1537L57.1802 29.2943C56.8851 28.0272 55.6187 27.2393 54.3517 27.5343Z" fill="#1D3A70"/>
<path d="M27.2213 58.7372C26.6385 58.7362 26.0732 58.5386 25.6168 58.1764C25.1604 57.8141 24.8395 57.3084 24.7063 56.7411L20.3136 37.88C20.1586 37.2137 20.2739 36.5131 20.6344 35.9316C20.9949 35.3502 21.5711 34.9353 22.2368 34.7779L54.3009 27.3104C54.9682 27.1555 55.6697 27.2718 56.2513 27.6336C56.8329 27.9955 57.2472 28.5734 57.4031 29.2404L61.7958 48.1015C61.8731 48.4316 61.8845 48.7738 61.8294 49.1083C61.7744 49.4429 61.6539 49.7633 61.4748 50.0512C61.2957 50.3392 61.0616 50.589 60.7859 50.7863C60.5102 50.9837 60.1983 51.1247 59.868 51.2014L27.8085 58.6712C27.6159 58.7155 27.4189 58.7376 27.2213 58.7372ZM54.8881 27.6973C54.7256 27.6972 54.5637 27.7163 54.4056 27.7542L22.3461 35.2217C22.0736 35.2844 21.8162 35.4003 21.5886 35.5627C21.361 35.7251 21.1677 35.9308 21.0197 36.168C20.8717 36.4052 20.772 36.6693 20.7262 36.9451C20.6804 37.2209 20.6895 37.503 20.7529 37.7753L25.1501 56.641C25.278 57.1896 25.618 57.6653 26.0957 57.9639C26.5735 58.2624 27.15 58.3596 27.6992 58.2342L59.7565 50.7667C60.0288 50.7036 60.286 50.5876 60.5134 50.4251C60.7409 50.2627 60.9341 50.057 61.082 49.8199C61.23 49.5827 61.3298 49.3188 61.3757 49.0431C61.4216 48.7673 61.4128 48.4853 61.3497 48.213L56.9593 29.3428C56.85 28.8753 56.586 28.4583 56.2101 28.1596C55.8341 27.8609 55.3683 27.698 54.8881 27.6973Z" fill="white"/>
<path d="M58.0077 32.8479L21.3618 41.3824L22.4475 46.0441L59.0934 37.5096L58.0077 32.8479Z" fill="white"/>
<path d="M22.4484 46.271C22.3958 46.2723 22.3444 46.2553 22.3029 46.223C22.2614 46.1906 22.2324 46.1449 22.2208 46.0935L21.1352 41.4323C21.1215 41.374 21.1313 41.3127 21.1625 41.2616C21.1781 41.2361 21.1986 41.2139 21.2229 41.1963C21.2471 41.1788 21.2745 41.1661 21.3036 41.1592L57.947 32.6219C57.9761 32.6152 58.0063 32.6143 58.0358 32.6192C58.0653 32.6241 58.0936 32.6348 58.1189 32.6507C58.1443 32.6665 58.1663 32.6872 58.1836 32.7116C58.201 32.736 58.2134 32.7635 58.2201 32.7926L59.308 37.4539C59.3148 37.4832 59.3157 37.5136 59.3106 37.5433C59.3055 37.573 59.2946 37.6014 59.2784 37.6268C59.2464 37.6775 59.1957 37.7135 59.1373 37.727L22.494 46.2642C22.4791 46.2682 22.4638 46.2705 22.4484 46.271ZM21.6359 41.5506L22.6191 45.768L58.821 37.3469L57.8377 33.1295L21.6359 41.5506Z" fill="white"/>
<g filter="url(#filter0_d_2_2985)">
<path d="M65.3439 37.609H32.4286C31.1277 37.609 30.073 38.6637 30.073 39.9647V59.3287C30.073 60.6297 31.1277 61.6844 32.4286 61.6844H65.3439C66.6449 61.6844 67.6996 60.6297 67.6996 59.3287V39.9647C67.6996 38.6637 66.6449 37.609 65.3439 37.609Z" fill="#1DAB87"/>
</g>
<path d="M65.344 61.9138H32.4264C31.7419 61.9126 31.0858 61.64 30.6019 61.1558C30.1181 60.6715 29.8461 60.0151 29.8455 59.3306V39.9642C29.8461 39.2797 30.1181 38.6233 30.6019 38.1391C31.0858 37.6548 31.7419 37.3822 32.4264 37.381H65.344C66.0289 37.3816 66.6857 37.6539 67.17 38.1383C67.6543 38.6226 67.9267 39.2793 67.9273 39.9642V59.3306C67.9267 60.0155 67.6543 60.6722 67.17 61.1566C66.6857 61.6409 66.0289 61.9132 65.344 61.9138ZM32.4264 37.8362C31.8626 37.8374 31.3223 38.062 30.9238 38.4609C30.5253 38.8598 30.3013 39.4004 30.3007 39.9642V59.3306C30.3007 59.8946 30.5245 60.4355 30.9231 60.8345C31.3217 61.2336 31.8624 61.458 32.4264 61.4586H65.344C65.9084 61.4586 66.4497 61.2344 66.8488 60.8353C67.2479 60.4363 67.4721 59.895 67.4721 59.3306V39.9642C67.4715 39.4 67.2471 38.8591 66.8481 38.4601C66.4491 38.0612 65.9082 37.8368 65.344 37.8362H32.4264Z" fill="#1DAB87"/>
<path d="M56.2173 48.174C57.6792 48.174 58.8643 46.9889 58.8643 45.527C58.8643 44.0651 57.6792 42.88 56.2173 42.88C54.7554 42.88 53.5703 44.0651 53.5703 45.527C53.5703 46.9889 54.7554 48.174 56.2173 48.174Z" fill="#FACC15"/>
<path d="M56.2173 48.4011C55.6487 48.4016 55.0927 48.2334 54.6197 47.9178C54.1466 47.6022 53.7778 47.1534 53.5599 46.6282C53.342 46.103 53.2848 45.5249 53.3954 44.9671C53.5061 44.4094 53.7797 43.897 54.1816 43.4947C54.5835 43.0925 55.0957 42.8185 55.6534 42.7074C56.2111 42.5963 56.7892 42.6531 57.3145 42.8706C57.8399 43.0881 58.289 43.4565 58.605 43.9293C58.921 44.4021 59.0896 44.9579 59.0896 45.5265C59.0884 46.2882 58.7855 47.0183 58.2471 47.557C57.7088 48.0958 56.9789 48.3993 56.2173 48.4011ZM56.2173 43.1095C55.7386 43.109 55.2705 43.2506 54.8723 43.5162C54.4741 43.7819 54.1637 44.1597 53.9803 44.6019C53.7969 45.0441 53.7488 45.5307 53.842 46.0003C53.9353 46.4698 54.1658 46.9011 54.5043 47.2396C54.8428 47.5781 55.2741 47.8085 55.7436 47.9018C56.2131 47.9951 56.6998 47.947 57.1419 47.7636C57.5841 47.5802 57.9619 47.2697 58.2276 46.8715C58.4933 46.4733 58.6349 46.0052 58.6344 45.5265C58.6332 44.8859 58.3782 44.2718 57.9251 43.8187C57.4721 43.3657 56.858 43.1107 56.2173 43.1095Z" fill="#FACC15"/>
<path d="M60.3505 48.174C61.8123 48.174 62.9974 46.9889 62.9974 45.527C62.9974 44.0651 61.8123 42.88 60.3505 42.88C58.8886 42.88 57.7035 44.0651 57.7035 45.527C57.7035 46.9889 58.8886 48.174 60.3505 48.174Z" fill="#FB923C"/>
<path d="M60.3505 48.4011C59.7818 48.4016 59.2259 48.2334 58.7528 47.9178C58.2798 47.6022 57.911 47.1534 57.6931 46.6282C57.4752 46.103 57.4179 45.5249 57.5286 44.9671C57.6392 44.4094 57.9128 43.897 58.3148 43.4947C58.7167 43.0925 59.2289 42.8185 59.7866 42.7074C60.3442 42.5963 60.9223 42.6531 61.4477 42.8706C61.9731 43.0881 62.4222 43.4565 62.7382 43.9293C63.0541 44.4021 63.2228 44.9579 63.2228 45.5265C63.2216 46.2882 62.9186 47.0183 62.3803 47.557C61.842 48.0958 61.1121 48.3993 60.3505 48.4011ZM60.3505 43.1095C59.8718 43.109 59.4037 43.2506 59.0055 43.5162C58.6073 43.7819 58.2968 44.1597 58.1134 44.6019C57.93 45.0441 57.8819 45.5307 57.9752 46.0003C58.0685 46.4698 58.299 46.9011 58.6375 47.2396C58.9759 47.5781 59.4072 47.8085 59.8768 47.9018C60.3463 47.9951 60.8329 47.947 61.2751 47.7636C61.7173 47.5802 62.0951 47.2697 62.3608 46.8715C62.6265 46.4733 62.768 46.0052 62.7676 45.5265C62.7664 44.8859 62.5113 44.2718 62.0583 43.8187C61.6053 43.3657 60.9912 43.1107 60.3505 43.1095Z" fill="#FB923C"/>
<path d="M38.0276 48.3878H35.499C35.0754 48.3879 34.669 48.2204 34.3684 47.9219C34.0678 47.6234 33.8974 47.2182 33.8944 46.7947V44.2569C33.8944 44.0467 33.936 43.8386 34.0168 43.6446C34.0975 43.4506 34.2159 43.2744 34.3651 43.1263C34.5142 42.9782 34.6912 42.8611 34.8858 42.7817C35.0804 42.7023 35.2888 42.6622 35.499 42.6637H38.0276C38.4501 42.6637 38.8554 42.8316 39.1542 43.1304C39.4529 43.4292 39.6208 43.8344 39.6208 44.2569V46.7855C39.6202 47.2087 39.4524 47.6146 39.154 47.9147C38.8557 48.2148 38.4508 48.3848 38.0276 48.3878ZM35.499 43.1098C35.3486 43.1083 35.1994 43.1367 35.06 43.1932C34.9206 43.2497 34.7938 43.3333 34.6869 43.4391C34.58 43.5449 34.4952 43.6709 34.4373 43.8097C34.3794 43.9485 34.3496 44.0974 34.3496 44.2478V46.7855C34.3496 46.936 34.3794 47.0849 34.4373 47.2237C34.4952 47.3625 34.58 47.4885 34.6869 47.5943C34.7938 47.7001 34.9206 47.7837 35.06 47.8402C35.1994 47.8967 35.3486 47.925 35.499 47.9235H38.0276C38.3294 47.9235 38.6189 47.8036 38.8323 47.5902C39.0457 47.3768 39.1656 47.0874 39.1656 46.7855V44.2569C39.1656 43.9551 39.0457 43.6657 38.8323 43.4522C38.6189 43.2388 38.3294 43.1189 38.0276 43.1189L35.499 43.1098Z" fill="#FFB9AA"/>
<path d="M40.3741 56.6403H34.122C34.0616 56.6403 34.0038 56.6163 33.9611 56.5736C33.9184 56.5309 33.8944 56.473 33.8944 56.4127V53.7475C33.8944 53.6871 33.9184 53.6292 33.9611 53.5866C34.0038 53.5439 34.0616 53.5199 34.122 53.5199H40.3741C40.4345 53.5199 40.4924 53.5439 40.5351 53.5866C40.5778 53.6292 40.6017 53.6871 40.6017 53.7475V56.4127C40.6017 56.473 40.5778 56.5309 40.5351 56.5736C40.4924 56.6163 40.4345 56.6403 40.3741 56.6403ZM34.3496 56.1851H40.1465V53.9751H34.3496V56.1851Z" fill="#FFB9AA"/>
<path d="M48.1329 56.6403H41.8808C41.8204 56.6403 41.7625 56.6163 41.7199 56.5736C41.6772 56.5309 41.6532 56.473 41.6532 56.4127V53.7475C41.6532 53.6871 41.6772 53.6292 41.7199 53.5866C41.7625 53.5439 41.8204 53.5199 41.8808 53.5199H48.1329C48.1933 53.5199 48.2512 53.5439 48.2939 53.5866C48.3365 53.6292 48.3605 53.6871 48.3605 53.7475V56.4127C48.3605 56.473 48.3365 56.5309 48.2939 56.5736C48.2512 56.6163 48.1933 56.6403 48.1329 56.6403ZM42.1084 56.1851H47.9053V53.9751H42.1084V56.1851Z" fill="#FFB9AA"/>
<path d="M55.8894 56.6403H49.6396C49.5792 56.6403 49.5213 56.6163 49.4786 56.5736C49.436 56.5309 49.412 56.473 49.412 56.4127V53.7475C49.412 53.6871 49.436 53.6292 49.4786 53.5866C49.5213 53.5439 49.5792 53.5199 49.6396 53.5199H55.8894C55.9498 53.5199 56.0077 53.5439 56.0504 53.5866C56.0931 53.6292 56.117 53.6871 56.117 53.7475V56.4127C56.117 56.473 56.0931 56.5309 56.0504 56.5736C56.0077 56.6163 55.9498 56.6403 55.8894 56.6403ZM49.8672 56.1851H55.6618V53.9751H49.8672V56.1851Z" fill="#FFB9AA"/>
<path d="M63.6597 56.6403H57.3985C57.3381 56.6403 57.2802 56.6163 57.2376 56.5736C57.1949 56.5309 57.1709 56.473 57.1709 56.4127V53.7475C57.1709 53.6871 57.1949 53.6292 57.2376 53.5866C57.2802 53.5439 57.3381 53.5199 57.3985 53.5199H63.6597C63.7201 53.5199 63.778 53.5439 63.8207 53.5866C63.8634 53.6292 63.8873 53.6871 63.8873 53.7475V56.4127C63.8873 56.473 63.8634 56.5309 63.8207 56.5736C63.778 56.6163 63.7201 56.6403 63.6597 56.6403ZM57.6375 56.1851H63.4321V53.9751H57.6261L57.6375 56.1851Z" fill="#FFB9AA"/>
<defs>
<filter id="filter0_d_2_2985" x="6.073" y="29.609" width="69.6266" height="56.0754" filterUnits="userSpaceOnUse" color-interpolation-filters="sRGB">
<feFlood flood-opacity="0" result="BackgroundImageFix"/>
<feColorMatrix in="SourceAlpha" type="matrix" values="0 0 0 0 0 0 0 0 0 0 0 0 0 0 0 0 0 0 127 0" result="hardAlpha"/>
<feOffset dx="-8" dy="8"/>
<feGaussianBlur stdDeviation="8"/>
<feComposite in2="hardAlpha" operator="out"/>
<feColorMatrix type="matrix" values="0 0 0 0 0.419608 0 0 0 0 0.447059 0 0 0 0 0.501961 0 0 0 0.15 0"/>
<feBlend mode="normal" in2="BackgroundImageFix" result="effect1_dropShadow_2_2985"/>
<feBlend mode="normal" in="SourceGraphic" in2="effect1_dropShadow_2_2985" result="shape"/>
</filter>
</defs>
</svg>
