<svg width="21" height="21" viewBox="0 0 21 21" fill="none" xmlns="http://www.w3.org/2000/svg">
<path d="M0 18.9H21V21H0V18.9ZM2.1 10.5H4.2V17.85H2.1V10.5ZM7.35 10.5H9.45V17.85H7.35V10.5ZM11.55 10.5H13.65V17.85H11.55V10.5ZM16.8 10.5H18.9V17.85H16.8V10.5ZM0 5.25L10.5 0L21 5.25V9.45H0V5.25ZM2.1 6.5478V7.35H18.9V6.5478L10.5 2.3478L2.1 6.5478ZM10.5 6.3C10.2215 6.3 9.95445 6.18938 9.75754 5.99246C9.56063 5.79555 9.45 5.52848 9.45 5.25C9.45 4.97152 9.56063 4.70445 9.75754 4.50754C9.95445 4.31063 10.2215 4.2 10.5 4.2C10.7785 4.2 11.0455 4.31063 11.2425 4.50754C11.4394 4.70445 11.55 4.97152 11.55 5.25C11.55 5.52848 11.4394 5.79555 11.2425 5.99246C11.0455 6.18938 10.7785 6.3 10.5 6.3Z" fill="#1DAB87"/>
</svg>
