<svg width="291" height="211" viewBox="0 0 291 211" fill="none" xmlns="http://www.w3.org/2000/svg">
<g clip-path="url(#clip0_2_3900)">
<path d="M124.714 197.33C179.261 197.33 223.48 153.156 223.48 98.6649C223.48 44.1738 179.261 0 124.714 0C70.1677 0 25.949 44.1738 25.949 98.6649C25.949 153.156 70.1677 197.33 124.714 197.33Z" fill="#F2F2F2"/>
<path d="M39.1884 211C60.8315 211 78.3767 208.196 78.3767 204.736C78.3767 201.277 60.8315 198.472 39.1884 198.472C17.5452 198.472 0 201.277 0 204.736C0 208.196 17.5452 211 39.1884 211Z" fill="#F2F2F2"/>
<path d="M230.364 204.633C263.852 204.633 291 200.294 291 194.941C291 189.588 263.852 185.249 230.364 185.249C196.876 185.249 169.728 189.588 169.728 194.941C169.728 200.294 196.876 204.633 230.364 204.633Z" fill="#F2F2F2"/>
<path d="M216.892 101.782C216.892 101.782 217.408 103.501 214.483 105.048C211.557 106.595 210.697 112.44 214.138 114.159C217.58 115.878 218.613 118.113 216.892 119.66C215.171 121.207 212.074 125.333 216.203 126.364C220.333 127.396 220.85 129.458 219.645 130.318C218.44 131.177 222.398 128.771 222.398 128.771C222.398 128.771 223.087 132.896 226.7 131.865C230.314 130.834 240.466 111.237 235.304 108.486C230.142 105.736 216.892 101.782 216.892 101.782Z" fill="#2F2E41"/>
<path d="M223.129 118.381C223.129 118.381 224.914 124.622 221.79 125.068C219.852 125.37 218.015 126.134 216.435 127.297L222.236 134.875H232.946L239.64 128.188C239.64 128.188 230.715 121.502 232.5 117.489C234.285 113.477 223.129 118.381 223.129 118.381Z" fill="#FFB9B9"/>
<path opacity="0.1" d="M223.129 118.381C223.129 118.381 224.914 124.622 221.79 125.068C219.852 125.37 218.015 126.134 216.435 127.297L222.236 134.875H232.946L239.64 128.188C239.64 128.188 230.715 121.502 232.5 117.489C234.285 113.477 223.129 118.381 223.129 118.381Z" fill="black"/>
<path d="M225.806 195.949L236.07 199.515L243.21 199.96L242.763 193.719L228.037 189.369L225.806 195.949Z" fill="#FFB9B9"/>
<path d="M238.97 194.611C238.97 194.611 238.97 200.852 239.863 200.852C240.755 200.852 252.804 199.515 256.374 200.852C259.944 202.19 265.299 197.286 262.621 194.611C259.944 191.936 255.576 187.924 252.851 188.816C250.126 189.708 238.97 191.936 238.97 191.936V194.611Z" fill="#575A89"/>
<path d="M206.171 188.816C206.171 188.816 200.817 199.515 204.386 200.406C207.956 201.298 211.973 199.961 212.419 199.515C212.865 199.069 219.113 197.286 220.005 198.177C220.897 199.069 220.898 194.611 220.898 194.611L206.171 188.816Z" fill="#575A89"/>
<path d="M210.634 174.105C210.634 174.105 202.155 185.695 208.403 188.816C214.65 191.936 244.548 191.936 246.78 188.816C249.011 185.695 249.903 175.888 246.78 174.996C243.656 174.105 210.634 174.105 210.634 174.105Z" fill="#2F2E41"/>
<path opacity="0.2" d="M210.634 174.105C210.634 174.105 202.155 185.695 208.403 188.816C214.65 191.936 244.548 191.936 246.78 188.816C249.011 185.695 249.903 175.888 246.78 174.996C243.656 174.105 210.634 174.105 210.634 174.105Z" fill="black"/>
<path d="M226.699 121.502C232.367 121.502 236.962 116.911 236.962 111.249C236.962 105.586 232.367 100.995 226.699 100.995C221.03 100.995 216.435 105.586 216.435 111.249C216.435 116.911 221.03 121.502 226.699 121.502Z" fill="#FFB9B9"/>
<path d="M210.634 127.297L219.559 125.514C219.559 125.514 221.79 132.646 228.93 131.309C236.07 129.972 237.855 125.514 237.855 125.514C237.855 125.514 243.21 127.743 243.656 127.743C244.102 127.743 249.903 129.972 249.903 131.309C249.903 132.646 243.21 146.02 243.21 146.02L244.102 170.093L211.08 169.201L213.311 145.574L210.634 127.297Z" fill="#1DAB87"/>
<path d="M205.725 138.887C205.725 138.887 203.048 162.514 204.833 164.297C206.618 166.081 213.758 170.984 213.758 170.984V165.635L210.188 158.948L213.758 143.345L205.725 138.887Z" fill="#FFB9B9"/>
<path d="M251.911 138.219C251.911 138.219 250.35 162.514 250.35 163.406C250.35 164.297 246.333 167.418 244.995 167.418C243.656 167.418 242.763 165.189 242.763 165.189L245.887 161.623L243.656 143.345L251.911 138.219Z" fill="#FFB9B9"/>
<path d="M247.672 172.322C247.672 172.322 267.753 161.177 268.199 172.322C268.646 183.466 257.936 187.924 257.936 187.924C257.936 187.924 230.269 196.212 229.153 193.183C228.037 190.153 225.806 185.25 227.591 184.804C229.376 184.358 231.607 183.466 232.5 184.358C233.392 185.25 244.548 177.671 244.548 177.671L247.672 172.322Z" fill="#2F2E41"/>
<path opacity="0.2" d="M257.043 170.984C257.043 170.984 253.027 172.768 251.688 174.105C250.35 175.442 244.548 177.671 244.548 177.671" stroke="black" stroke-width="2" stroke-miterlimit="10"/>
<path d="M213.311 128.188L210.634 127.297C210.634 127.297 200.817 137.55 203.94 140.225C207.064 142.9 208.849 143.791 209.741 144.683C210.634 145.574 215.096 146.02 215.096 146.02L213.311 128.188Z" fill="#1DAB87"/>
<path d="M245.887 130.417L249.903 131.309C249.903 131.309 253.027 137.996 253.92 138.887C254.812 139.779 252.581 139.333 251.242 141.116C249.903 142.9 248.565 146.02 245.887 146.02C243.21 146.02 239.64 141.562 239.64 141.562L245.887 130.417Z" fill="#1DAB87"/>
<path d="M211.526 176.334C211.526 176.334 194.569 164.297 188.768 173.213C182.967 182.129 213.758 194.165 218.22 195.948C222.682 197.732 226.699 199.515 226.699 199.515C226.699 199.515 230.715 189.707 230.715 187.924C230.715 186.141 227.591 186.141 226.699 186.141C225.806 186.141 221.79 185.249 220.898 183.912C220.005 182.575 211.526 176.334 211.526 176.334Z" fill="#2F2E41"/>
<path opacity="0.2" d="M202.155 173.213C202.155 173.213 206.618 176.779 210.634 177.671C214.65 178.563 215.989 180.792 215.989 180.792" stroke="black" stroke-width="2" stroke-miterlimit="10"/>
<path d="M208.448 156.452L208.805 175.327C208.816 175.95 209.074 176.543 209.522 176.978C209.97 177.412 210.572 177.652 211.196 177.645L246.357 177.25C246.956 177.243 247.53 177.01 247.964 176.596C248.397 176.183 248.657 175.621 248.692 175.023L249.759 156.543C249.778 156.222 249.73 155.9 249.62 155.598C249.51 155.296 249.339 155.019 249.118 154.785C248.897 154.551 248.63 154.365 248.334 154.237C248.038 154.11 247.72 154.044 247.398 154.044H210.813C210.499 154.044 210.187 154.107 209.898 154.228C209.608 154.35 209.345 154.528 209.125 154.752C208.905 154.976 208.731 155.242 208.615 155.534C208.499 155.826 208.442 156.138 208.448 156.452Z" fill="#575A89"/>
<path d="M227.247 98.3684C227.247 98.3684 227.819 100.273 224.578 101.987C221.338 103.701 220.384 110.175 224.197 112.08C228.01 113.984 229.153 116.46 227.247 118.174C225.341 119.888 221.909 124.458 226.484 125.601C231.06 126.743 231.631 129.028 230.297 129.981C228.963 130.933 233.347 128.267 233.347 128.267C233.347 128.267 234.11 132.837 238.113 131.694C242.116 130.552 246.11 109.782 241.648 104.432C237.499 99.4584 227.247 98.3684 227.247 98.3684Z" fill="#2F2E41"/>
<path d="M226.029 96.4083C226.03 93.6184 234.386 95.6231 237.968 99.5185C240.449 102.216 244.217 106.274 241.059 109.135C237.902 111.996 246.471 115.746 248.769 116.883C251.068 118.02 255.606 121.497 251.508 123.829C247.411 126.162 247.477 128.517 249.019 129.074C250.561 129.632 245.619 128.245 245.619 128.245C245.619 128.245 246.119 132.852 241.955 132.83C237.792 132.808 225.848 109.95 228.701 103.597C231.354 97.6897 226.029 96.4083 226.029 96.4083Z" fill="#2F2E41"/>
<path d="M227.839 95.7968C216.666 95.1247 215.544 103.527 215.544 103.527C215.622 108.389 223.351 106.02 225.498 106.745C228.088 104.884 233.08 101.362 236.65 98.8486C234.058 97.0252 231.005 95.9676 227.839 95.7968Z" fill="#2F2E41"/>
<path d="M224.656 149.412C224.656 149.412 214.633 102.487 151.9 68.4465" stroke="#3F3D56" stroke-width="2" stroke-miterlimit="10"/>
<path d="M154.485 67.4231L154.61 67.9376L152.073 68.5523L152.872 71.0359L152.367 71.1975L151.394 68.1725L154.485 67.4231Z" fill="#3F3D56"/>
<path d="M18.1308 197.359C18.1308 203.302 14.5942 205.378 10.2312 205.378C10.1301 205.378 10.0292 205.376 9.92847 205.374C9.72632 205.37 9.52609 205.36 9.32828 205.347C5.39076 205.068 2.3316 202.886 2.3316 197.359C2.3316 191.639 9.64883 184.421 10.1985 183.887L10.1994 183.886C10.2206 183.865 10.2312 183.855 10.2312 183.855C10.2312 183.855 18.1308 191.416 18.1308 197.359Z" fill="#1DAB87"/>
<path d="M9.9434 204.468L12.8326 200.435L9.93618 204.911L9.92848 205.374C9.72633 205.37 9.52611 205.36 9.32829 205.347L9.6397 199.401L9.63729 199.354L9.64259 199.346L9.67195 198.784L6.76825 194.297L9.68109 198.363L9.68783 198.482L9.92318 193.99L7.43727 189.353L9.95351 193.201L10.1985 183.887L10.1994 183.855V183.886L10.1585 191.231L12.6334 188.319L10.1484 191.863L10.083 195.886L12.3937 192.025L10.0734 196.478L10.0368 198.714L13.3914 193.341L10.0243 199.494L9.9434 204.468Z" fill="#3F3D56"/>
<path d="M55.8098 195.819L57.4996 194.565C57.4996 194.565 58.6182 200.807 57.37 201.742C56.1219 202.677 51.4413 204.236 51.4413 206.106C51.4413 207.977 40.8319 210.47 40.5199 207.665C40.2078 204.859 41.456 203.301 41.456 203.301C41.456 203.301 46.4486 198.313 47.0727 197.378C47.6968 196.443 49.257 194.572 49.257 194.572L55.8098 195.819Z" fill="#2F2E41"/>
<path d="M30.8466 118.2C30.8466 118.2 30.8934 118.475 30.9745 118.977C31.0495 119.422 31.1524 120.052 31.2772 120.828C32.5878 128.818 36.4103 152.337 36.1513 153.113C35.8393 154.049 33.655 157.478 36.1513 158.413C36.3916 158.503 36.6506 158.796 36.9283 159.257C37.4643 160.251 37.9062 161.293 38.2482 162.369C39.7366 166.683 41.3281 173.587 42.2486 178.369C42.6511 180.47 42.9257 182.16 43.0068 183.045C43.035 183.25 43.0382 183.457 43.0162 183.662C42.7041 184.909 44.8884 189.273 45.8245 190.52C46.7607 191.767 48.3209 193.014 48.0088 194.261C47.6968 195.508 55.8098 198.937 56.7459 196.755C57.6821 194.573 57.6821 193.326 57.9941 192.702C58.3061 192.079 58.6182 187.715 57.058 187.091C55.4978 186.468 56.4339 175.558 54.8737 173.375C54.3526 172.649 53.5569 170.19 52.7237 167.231C52.3961 166.072 52.0653 164.837 51.7408 163.6C50.424 158.528 49.257 153.425 49.257 153.425L49.569 116.954L32.4068 114.771L31.9669 115.741L31.09 117.664L30.8466 118.2Z" fill="#2F2E41"/>
<path d="M29.9105 178.051C29.9105 178.051 27.4142 175.557 26.166 178.051C24.9179 180.545 23.6697 190.208 21.4854 192.39C19.3011 194.573 16.4928 205.483 19.6132 206.106C22.7336 206.73 26.166 205.171 26.4781 203.301C26.7901 201.43 33.3429 191.767 33.3429 190.832C33.3429 189.897 28.9744 186.468 28.9744 186.468L29.9105 178.051Z" fill="#2F2E41"/>
<path d="M68.2914 101.056C68.2914 101.056 64.2349 137.527 63.2988 140.956C62.3627 144.385 57.37 157.477 55.8098 159.66C54.2496 161.842 44.2643 179.61 43.0162 180.545C41.768 181.48 39.2717 183.974 39.2717 183.974C39.2717 183.974 34.5911 188.65 33.967 189.585C33.3429 190.52 28.0383 187.715 27.7262 185.844C27.4142 183.974 28.0383 180.857 28.3503 179.61C28.6623 178.363 27.7262 176.493 28.6623 175.557C29.5985 174.622 34.2791 169.946 34.2791 167.764C34.2791 165.582 42.3921 152.802 45.5125 149.996C48.6329 147.191 48.0088 142.515 48.0088 142.515V123.5L30.8466 118.2C30.8466 118.2 31.7827 103.238 33.967 103.238C36.1513 103.238 64.859 98.2501 68.2914 101.056Z" fill="#2F2E41"/>
<path d="M43.0162 48.9978C48.7033 48.9978 53.3135 44.3922 53.3135 38.7109C53.3135 33.0297 48.7033 28.4241 43.0162 28.4241C37.3291 28.4241 32.7189 33.0297 32.7189 38.7109C32.7189 44.3922 37.3291 48.9978 43.0162 48.9978Z" fill="#9F616A"/>
<path d="M46.4486 46.8157C46.4486 46.8157 47.6968 51.4916 49.257 52.7384C50.8172 53.9853 45.2005 59.2846 45.2005 59.2846L34.5911 59.9081L32.7189 53.9853C32.7189 53.9853 36.1513 47.1274 35.2152 42.7633C34.2791 38.3992 46.4486 46.8157 46.4486 46.8157Z" fill="#9F616A"/>
<path d="M50.8172 52.1152C50.8172 52.1152 48.0088 52.427 47.3847 53.3621C46.7607 54.2973 42.3921 57.1028 38.9597 56.4794C35.5272 55.8559 33.3429 54.9207 32.7189 55.2325C32.0948 55.5442 30.8466 62.0904 30.8466 62.0904L34.2791 72.0655L33.655 99.4971L32.7189 106.978C32.7189 106.978 30.8466 104.485 38.3356 106.043C45.8245 107.602 55.4978 104.796 58.6182 104.485C61.7386 104.173 67.0433 103.238 67.3553 101.367C67.6674 99.4971 66.4192 92.6392 66.4192 92.6392L61.4266 71.7538L58.3062 60.5318L50.8172 52.1152Z" fill="#1DAB87"/>
<path d="M47.8657 50.7082C47.8657 50.7082 50.5052 49.3096 51.4413 50.5565C52.3774 51.8034 64.2349 53.6737 64.2349 54.6089C64.2349 55.544 66.7313 80.7936 66.1072 82.9757C65.4831 85.1578 67.3553 87.6515 67.3553 87.6515L69.5396 97.0032C69.5396 97.0032 75.4684 114.771 72.9721 115.395C70.4757 116.018 68.2915 115.395 67.3553 115.395C66.4192 115.395 66.7313 103.549 64.2349 100.432C61.7386 97.3149 58.3062 89.5219 57.6821 87.9633C57.058 86.4046 49.257 64.8957 49.5691 62.402C49.8811 59.9082 47.8657 50.7082 47.8657 50.7082Z" fill="#D0CDE1"/>
<path d="M34.9032 52.1152C34.9032 52.1152 32.4068 52.1152 32.0948 52.7387C31.7828 53.3621 28.6624 57.4145 27.4142 58.3497C26.166 59.2849 21.7975 63.3373 21.7975 64.2724C21.7975 65.2076 30.8467 72.0655 30.8467 72.0655C30.8467 72.0655 34.5911 90.4571 32.7189 96.6916C30.8466 102.926 28.0383 117.889 29.2865 118.824C30.5346 119.759 33.343 120.071 33.343 118.824C33.343 117.577 35.2152 104.173 36.7754 101.367C38.3356 98.5619 43.0162 80.7937 41.144 75.8062C39.2717 70.8186 34.9032 52.1152 34.9032 52.1152Z" fill="#D0CDE1"/>
<path d="M76.0925 82.9756C76.0925 82.9756 76.4045 92.639 72.9721 97.6266C69.5396 102.614 67.3554 108.225 67.3554 108.225C67.3554 108.225 61.7386 106.667 60.8025 104.796C59.8664 102.926 53.9376 104.484 53.9376 103.861C53.9376 103.238 61.1145 100.12 61.7386 99.4969C62.3627 98.8735 64.547 98.8735 65.7952 97.6266C67.0433 96.3797 67.3554 93.5742 67.3554 93.5742L68.6035 85.4694L76.0925 82.9756Z" fill="#9F616A"/>
<path d="M50.1085 32.3684C50.9007 32.2965 51.7177 32.2174 52.4178 31.8402C53.9866 30.995 54.4025 28.5882 53.2083 27.2665C52.8791 26.9302 52.5108 26.6344 52.1113 26.3853L49.7394 24.7725C48.6903 24.0592 47.6165 23.3342 46.393 22.9979C45.2863 22.6938 44.1175 22.725 42.9719 22.7962C40.7481 22.9342 38.5105 23.2195 36.4188 23.9865C34.3272 24.7535 32.376 26.0367 31.1092 27.8678C29.1009 30.7707 29.0733 34.6857 30.1794 38.0369C31.2855 41.3881 33.3866 44.3063 35.4569 47.1654L36.5311 41.9293C36.6268 41.463 36.7505 40.9518 37.1388 40.6758C38.1038 39.9898 39.2843 41.3983 40.4687 41.3892C41.2297 41.3833 41.8686 40.758 42.157 40.0545C42.4454 39.3509 42.4644 38.5718 42.5311 37.8144C42.6724 36.2104 43.2337 33.9784 44.7543 33.0937C46.1713 32.2694 48.5157 32.5129 50.1085 32.3684Z" fill="#2F2E41"/>
<path opacity="0.1" d="M49.5308 118.452C49.5308 118.452 48.4769 148.905 47.8528 149.84C47.2287 150.775 47.8528 118.356 47.8528 118.356L49.5308 118.452Z" fill="black"/>
<path d="M61.7386 54.6089H64.2349C64.2349 54.6089 74.8443 68.9482 73.5961 69.8833C72.348 70.8185 73.5961 73.3123 73.5961 73.3123L76.0924 77.9881C76.0924 77.9881 79.2128 80.7936 78.2767 81.4171C77.3406 82.0405 76.0924 84.5343 76.0924 84.5343C76.0924 84.5343 69.8516 83.5991 67.9794 87.3398L63.9323 82.2358L61.7386 54.6089Z" fill="#D0CDE1"/>
<path d="M62.6209 59.2212L54.055 62.7549L60.6468 78.7015L69.2127 75.1679L62.6209 59.2212Z" fill="#2F2E41"/>
<path d="M61.6169 68.5739C62.5631 68.1836 63.0391 67.1633 62.6802 66.295C62.3213 65.4267 61.2633 65.0392 60.3171 65.4295C59.371 65.8198 58.8949 66.8401 59.2538 67.7084C59.6128 68.5767 60.6707 68.9642 61.6169 68.5739Z" fill="#1DAB87"/>
<path d="M55.4978 79.5466C55.4978 79.5466 33.0309 98.25 29.2864 92.3273C25.542 86.4045 33.343 81.417 33.343 81.417C33.343 81.417 40.2079 81.7287 48.0089 76.7411L55.8099 73.3122C55.8099 73.3122 62.9316 63.155 65.3584 67.0227C67.7853 70.8905 61.2158 77.622 55.4978 79.5466Z" fill="#9F616A"/>
<path d="M25.2299 63.0254L21.7975 64.2723V73.624L20.5493 75.4943C20.5493 75.4943 20.8614 79.235 21.7975 80.1702C22.7336 81.1053 24.6058 80.7936 23.9818 82.9757C23.6067 84.3983 23.5009 85.8784 23.6697 87.3398C23.6697 87.3398 29.2864 94.5094 29.5985 93.5742C29.9105 92.6391 34.2791 81.1053 34.9032 81.1053C35.5272 81.1053 28.6624 63.0254 28.6624 63.0254H25.2299Z" fill="#D0CDE1"/>
<path d="M66.2632 110.251C66.2632 110.251 69.4896 107.134 67.8764 106.978C66.2632 106.822 60.6465 103.705 59.7104 105.264C58.7743 106.822 66.2632 110.251 66.2632 110.251Z" fill="#2F2E41"/>
<path d="M127.627 50.7874C130.113 50.7874 132.128 49.7216 132.128 48.4068C132.128 47.092 130.113 46.0261 127.627 46.0261C125.141 46.0261 123.126 47.092 123.126 48.4068C123.126 49.7216 125.141 50.7874 127.627 50.7874Z" fill="#57B894"/>
<path d="M144.838 56.3422C134.688 52.5126 124.538 52.5126 114.388 56.3422V43.9099C124.317 40.9168 134.909 40.9168 144.838 43.9099V56.3422Z" stroke="#3F3D56" stroke-width="2" stroke-miterlimit="10"/>
<path d="M140.601 53.771C133.276 51.0071 125.95 51.0071 118.624 53.771V44.7982C125.79 42.6379 133.435 42.6379 140.601 44.7982V53.771Z" stroke="#3F3D56" stroke-width="2" stroke-miterlimit="10"/>
<path d="M129.216 49.7293C131.702 49.7293 133.717 48.6635 133.717 47.3487C133.717 46.0339 131.702 44.968 129.216 44.968C126.73 44.968 124.714 46.0339 124.714 47.3487C124.714 48.6635 126.73 49.7293 129.216 49.7293Z" stroke="#3F3D56" stroke-width="2" stroke-miterlimit="10"/>
<path d="M130.937 65.6965C133.373 65.1999 135.134 63.753 134.871 62.4647C134.607 61.1765 132.419 60.5348 129.984 61.0314C127.548 61.5281 125.787 62.975 126.05 64.2632C126.313 65.5515 128.501 66.1932 130.937 65.6965Z" fill="#57B894"/>
<path d="M148.912 67.7009C138.2 65.9764 128.255 68.0041 119.077 73.784L116.588 61.6029C125.717 56.6867 136.096 54.5706 146.423 55.5197L148.912 67.7009Z" stroke="#3F3D56" stroke-width="2" stroke-miterlimit="10"/>
<path d="M144.246 66.0281C136.515 64.7834 129.338 66.2469 122.713 70.4185L120.917 61.6269C127.506 58.0787 134.996 56.5514 142.45 57.2365L144.246 66.0281Z" stroke="#3F3D56" stroke-width="2" stroke-miterlimit="10"/>
<path d="M132.282 64.3423C134.717 63.8457 136.479 62.3987 136.215 61.1105C135.952 59.8223 133.764 59.1805 131.328 59.6772C128.893 60.1738 127.131 61.6207 127.395 62.909C127.658 64.1972 129.846 64.8389 132.282 64.3423Z" stroke="#3F3D56" stroke-width="2" stroke-miterlimit="10"/>
<path d="M134.017 78.473C134.109 77.1614 132.172 75.9584 129.692 75.786C127.212 75.6136 125.128 76.5371 125.036 77.8487C124.945 79.1603 126.881 80.3634 129.361 80.5358C131.841 80.7082 133.926 79.7847 134.017 78.473Z" fill="#57B894"/>
<path d="M146.145 87.2709C136.285 82.7466 126.16 82.0427 115.768 85.1592L116.632 72.7569C126.745 70.4596 137.312 71.1941 147.009 74.8686L146.145 87.2709Z" stroke="#3F3D56" stroke-width="2" stroke-miterlimit="10"/>
<path d="M142.097 84.4122C134.981 81.1469 127.673 80.6388 120.173 82.8881L120.796 73.9369C128.095 72.2788 135.722 72.809 142.721 75.461L142.097 84.4122Z" stroke="#3F3D56" stroke-width="2" stroke-miterlimit="10"/>
<path d="M135.676 77.5277C135.767 76.2161 133.831 75.0131 131.351 74.8407C128.871 74.6683 126.786 75.5918 126.695 76.9034C126.603 78.215 128.54 79.4181 131.02 79.5905C133.5 79.7629 135.584 78.8394 135.676 77.5277Z" stroke="#3F3D56" stroke-width="2" stroke-miterlimit="10"/>
<path d="M109.866 56.6307C109.866 56.6307 90.4048 53.9711 76.5073 62.1072" stroke="#3F3D56" stroke-width="2" stroke-miterlimit="10"/>
<path d="M76.9755 59.3733L77.481 59.5331L76.6908 62.0192L79.2312 62.6247L79.1075 63.1397L76.014 62.4015L76.9755 59.3733Z" fill="#3F3D56"/>
</g>
<defs>
<clipPath id="clip0_2_3900">
<rect width="291" height="211" fill="white"/>
</clipPath>
</defs>
</svg>
