<svg width="123" height="100" viewBox="0 0 123 100" fill="none" xmlns="http://www.w3.org/2000/svg">
<path opacity="0.5" d="M20.8333 0.5H0.5V50M20.8333 0.5H60.4833M20.8333 0.5L41.1667 17M20.8333 0.5V31.85M20.8333 99.5H0.5V83M20.8333 99.5L40.15 83.825M20.8333 99.5V66.5M20.8333 99.5L0.5 83M20.8333 99.5H60.4833M40.15 83.825H80.8167M40.15 83.825L20.8333 66.5M80.8167 83.825L100.133 99.5M80.8167 83.825L60.4833 99.5M80.8167 83.825L81.8333 51.65M80.8167 83.825L60.4833 67.325M100.133 99.5H122.5V81.35M100.133 99.5L122.5 81.35M100.133 99.5V66.5M100.133 99.5H60.4833M122.5 81.35V53.3M100.133 66.5L81.8333 51.65M100.133 66.5L122.5 53.3M81.8333 51.65L101.15 35.975M81.8333 51.65V17.825M81.8333 51.65L60.4833 67.325M101.15 35.975L122.5 53.3M101.15 35.975V2.15M101.15 0.5H122.5V17M101.15 0.5V2.15M101.15 0.5H60.4833M101.15 0.5L122.5 17M122.5 53.3V17M81.8333 17.825L101.15 2.15M81.8333 17.825L60.4833 0.5M81.8333 17.825L61.5 33.5M81.8333 17.825L41.1667 17M61.5 33.5L41.1667 17M61.5 33.5L60.4833 67.325M41.1667 17L20.8333 31.85M41.1667 17L40.15 50.825M20.8333 31.85V33.5M0.5 50L20.8333 33.5M0.5 50L20.8333 66.5M0.5 50V83M20.8333 33.5V66.5M20.8333 66.5L40.15 50.825M20.8333 66.5L60.4833 67.325M40.15 50.825L60.4833 67.325" stroke="white"/>
</svg>
