<svg width="26" height="26" viewBox="0 0 26 26" fill="none" xmlns="http://www.w3.org/2000/svg">
<path d="M20.5837 7.58317C20.5837 7.79984 20.5837 7.90817 20.5837 8.12484C20.4754 9.74984 19.717 11.1582 18.742 12.1332C17.5504 13.3248 15.9254 14.0832 14.0837 14.0832H10.7254C10.1837 14.0832 9.75037 14.5165 9.64204 15.0582L8.77537 20.7998C8.66704 21.2332 8.45037 21.5582 8.01704 21.6665C7.90871 21.6665 7.80037 21.6665 7.69204 21.6665H5.6337C4.98371 21.6665 4.44204 21.1248 4.55037 20.3665L7.15037 4.87484C7.36704 3.35817 8.77537 2.1665 10.292 2.1665H15.167C18.2004 2.1665 20.5837 4.54984 20.5837 7.58317Z" stroke="#5FA8EE" stroke-width="1.5" stroke-miterlimit="10"/>
<path d="M22.7504 11.9167C22.7504 13.4333 22.1004 14.7333 21.1254 15.7083C20.1504 16.6833 18.8504 17.3333 17.3337 17.3333H15.0587C14.517 17.3333 14.0837 17.6583 13.9754 18.2L13.217 22.8583C13.1087 23.4 12.6754 23.725 12.1337 23.725H8.88371C8.23371 23.725 7.69204 23.075 7.80037 22.425L8.01704 21.6667C8.45037 21.5583 8.77537 21.2333 8.77537 20.8L9.64204 15.0583C9.75037 14.5167 10.1837 14.0833 10.7254 14.0833H14.0837C15.9254 14.0833 17.5504 13.325 18.6337 12.1333C19.717 11.05 20.367 9.64167 20.4754 8.125C21.8837 8.88333 22.7504 10.2917 22.7504 11.9167Z" stroke="#5FA8EE" stroke-width="1.5" stroke-miterlimit="10"/>
</svg>
