<svg width="88" height="77" viewBox="0 0 88 77" fill="none" xmlns="http://www.w3.org/2000/svg">
<circle cx="1.00867" cy="69.8916" r="1.00867" fill="#86EFAC"/>
<circle cx="66.5724" cy="75.9436" r="1.00867" fill="#FDE047"/>
<circle cx="14.1214" cy="3.31925" r="1.00867" fill="#E5E7EB"/>
<path fill-rule="evenodd" clip-rule="evenodd" d="M77.6389 23.1233C79.7309 22.9514 81.8736 23.0499 83.9499 23.1594C84.3968 23.1843 84.7567 23.5313 84.7214 23.9277C84.7173 24.3297 84.343 24.6342 83.9273 24.6146C81.9152 24.5069 79.838 24.4046 77.8432 24.5734C77.4178 24.6112 77.0167 24.3158 76.9561 23.9148C76.8955 23.5141 77.2134 23.1615 77.6389 23.1233Z" fill="#FFF1EE"/>
<path fill-rule="evenodd" clip-rule="evenodd" d="M72.8031 14.8091C76.5409 12.3538 80.62 10.3547 84.309 7.80814C84.64 7.56799 85.1437 7.63792 85.4111 7.96028C85.6784 8.28293 85.6325 8.74107 85.2702 8.97587C81.5797 11.5313 77.4991 13.539 73.7598 16.0031C73.3987 16.2311 72.897 16.1497 72.6309 15.8197C72.3961 15.4952 72.4419 15.037 72.8031 14.8091Z" fill="#FFF1EE"/>
<path fill-rule="evenodd" clip-rule="evenodd" d="M68.7267 2.22172C68.3398 3.92552 67.953 5.62936 67.566 7.33346C67.4989 7.72739 67.0711 7.9675 66.6359 7.87366C66.2007 7.77952 65.9448 7.39087 66.0119 6.99665C66.3994 5.28998 66.7865 3.58357 67.1739 1.87719C67.2723 1.48859 67.6997 1.25046 68.1346 1.34659C68.5381 1.43739 68.8251 1.8334 68.7267 2.22172Z" fill="#FFF1EE"/>
<path fill-rule="evenodd" clip-rule="evenodd" d="M75.5987 22.1438C77.7072 21.9705 79.867 22.0698 81.9596 22.1802C82.4101 22.2053 82.7728 22.555 82.7372 22.9545C82.7332 23.3598 82.3558 23.6667 81.9369 23.6469C79.9089 23.5384 77.8152 23.4352 75.8046 23.6054C75.3758 23.6435 74.9716 23.3457 74.9105 22.9416C74.8494 22.5377 75.1699 22.1823 75.5987 22.1438Z" fill="#FFB9AA"/>
<path fill-rule="evenodd" clip-rule="evenodd" d="M70.7246 13.7638C74.492 11.2891 78.6035 9.27413 82.3216 6.7074C82.6552 6.46536 83.163 6.53584 83.4325 6.86075C83.7019 7.18596 83.6556 7.64772 83.2904 7.88439C79.5708 10.46 75.4578 12.4836 71.6889 14.9673C71.3249 15.197 70.8192 15.1151 70.5511 14.7824C70.3144 14.4553 70.3606 13.9936 70.7246 13.7638Z" fill="#FFB9AA"/>
<path fill-rule="evenodd" clip-rule="evenodd" d="M66.6159 1.07673C66.2259 2.79403 65.8361 4.51136 65.4461 6.22895C65.3784 6.626 64.9472 6.86802 64.5085 6.77343C64.0699 6.67854 63.812 6.28682 63.8797 5.88948C64.2701 4.16929 64.6604 2.44937 65.0508 0.729475C65.15 0.3378 65.5808 0.0977809 66.0191 0.194678C66.4258 0.286198 66.7151 0.685344 66.6159 1.07673Z" fill="#FFB9AA"/>
</svg>
