<svg width="19" height="24" viewBox="0 0 19 24" fill="none" xmlns="http://www.w3.org/2000/svg">
<path d="M15.8676 12.3972C15.8412 9.44425 18.2794 8.02658 18.3897 7.95747C17.0176 5.9501 14.8823 5.6751 14.1206 5.64275C12.3044 5.45892 10.5749 6.71187 9.65435 6.71187C8.73375 6.71187 7.31022 5.66922 5.80432 5.69863C3.82196 5.72805 1.99694 6.85011 0.976348 8.62365C-1.08102 12.1928 0.451346 17.4825 2.4543 20.3796C3.43519 21.7958 4.60284 23.3914 6.13815 23.3326C7.61757 23.2738 8.1764 22.3767 9.9617 22.3767C11.747 22.3767 12.25 23.3326 13.8132 23.3046C15.4029 23.2738 16.4117 21.8576 17.3853 20.437C18.5088 18.7928 18.9735 17.2017 19 17.1178C18.9647 17.1031 15.9 15.9281 15.8676 12.3972Z" fill="#1D3A70"/>
<path d="M12.9308 3.72647C13.7455 2.73969 14.2955 1.3676 14.144 0C12.9704 0.0471101 11.5499 0.782374 10.7072 1.76915C9.95282 2.64125 9.29105 4.03828 9.47038 5.37804C10.7793 5.47951 12.116 4.71179 12.9308 3.72647Z" fill="#1D3A70"/>
</svg>
