<svg xmlns="http://www.w3.org/2000/svg" width="21" height="20" fill="none" viewBox="0 0 21 20"><path fill="#03053D" d="M13.9378 11.5793C12.8055 13.2354 11.1473 14.018 9.20687 14.018C6.85009 14.018 4.83291 12.2043 5.12239 9.79948C5.44461 7.13173 7.516 5.98402 10.9612 5.56156C11.5759 5.48689 11.8306 5.46541 13.1573 5.36721L13.2985 5.35698V5.13705C13.2985 3.29991 12.206 2.04582 10.7412 2.04582C9.27131 2.04582 8.24533 2.80993 7.61624 4.62969L5.68294 3.96275C6.59027 1.33387 8.38138 0 10.7412 0C13.4039 0 15.3443 2.2279 15.3443 5.13705C15.3443 7.84674 15.5111 10.002 15.8384 10.8214C16.2026 11.7338 16.3355 11.964 16.7426 12.4713L15.1469 13.751C14.6119 13.084 14.3767 12.6779 13.9389 11.5804V11.5793H13.9378ZM19.6989 17.6401C19.4217 17.8447 18.9399 17.7229 19.1577 17.19C19.4288 16.5272 19.7173 15.7497 19.4257 15.3979C19.2109 15.137 18.948 15.0071 18.3752 15.0071C17.9047 15.0071 17.6694 15.0685 17.3574 15.0889C17.1487 15.1022 17.0577 14.7851 17.2643 14.6389C17.5349 14.445 17.8356 14.2971 18.1543 14.2011C19.3306 13.8492 20.7167 14.0425 20.8854 14.286C21.2588 14.8281 20.6819 16.9138 19.6989 17.6411V17.6401ZM18.4898 16.5313C18.2241 16.7882 17.9404 17.0258 17.6408 17.2422C15.4701 18.8952 12.6592 19.7585 10.2165 19.7585C6.28544 19.7585 2.7697 17.9245 0.101947 14.8537C-0.126162 14.6184 0.0630763 14.2747 0.330056 14.4609C3.20443 16.5855 6.76212 17.8702 10.4456 17.8702C12.7625 17.8702 15.2615 17.3209 17.6418 16.1385C17.8075 16.0607 17.9937 15.9543 18.1563 15.8786C18.5317 15.6638 18.8621 16.1916 18.4898 16.5313ZM13.3087 7.40689C12.0219 7.50305 11.7785 7.52248 11.2097 7.59204C8.59926 7.91221 7.32574 8.61802 7.15389 10.045C7.025 11.1119 7.98245 11.9721 9.20687 11.9721C11.2926 11.9721 12.8044 10.716 13.321 7.40689H13.3087Z"/></svg>