<svg xmlns="http://www.w3.org/2000/svg" width="32" height="32" fill="none" viewBox="0 0 32 32"><path fill="#000" d="M9.62419 24.4694C10.6058 24.4694 11.4025 25.2603 11.4025 26.2347C11.4025 27.2092 10.6058 28 9.62419 28C8.64256 28 7.84588 27.2092 7.84588 26.2347C7.84588 25.2603 8.64256 24.4694 9.62419 24.4694ZM25.0362 24.4694C26.0178 24.4694 26.8145 25.2603 26.8145 26.2347C26.8145 27.2092 26.0178 28 25.0362 28C24.0545 28 23.2579 27.2092 23.2579 26.2347C23.2579 25.2603 24.0545 24.4694 25.0362 24.4694ZM5.67872 3L10.2158 7.50501V20.9389H26.8145V23.2926H9.03142C8.377 23.2926 7.84588 22.7653 7.84588 22.1157V8.47945L4 4.66525L5.67753 3H5.67872ZM22.0723 4.46283C22.7267 4.46283 23.2579 4.99007 23.2579 5.63969V7.99341H26.8062C27.4665 7.99341 28 8.53006 28 9.16438V18.591C28 19.2383 27.4665 19.762 26.8062 19.762H12.5963C11.936 19.762 11.4025 19.2253 11.4025 18.591V9.16438C11.4025 8.51711 11.936 7.99341 12.5963 7.99341H16.1435L16.1446 5.63969C16.1446 4.99007 16.6758 4.46283 17.3302 4.46283H22.0723ZM14.9591 10.3471H13.7736V17.4083H14.9591V10.3471ZM22.0723 10.3471H17.3302V17.4083H22.0723V10.3471ZM25.6289 10.3471H24.4434V17.4083H25.6289V10.3471ZM20.8868 6.81655H18.5157V7.99341H20.8868V6.81655Z"/></svg>