<svg width="26" height="26" viewBox="0 0 26 26" fill="none" xmlns="http://www.w3.org/2000/svg">
<path d="M10.8333 15.1667L22.75 3.25" stroke="#FB923C" stroke-width="1.5" stroke-linecap="round" stroke-linejoin="round"/>
<path d="M22.7496 3.25L15.7079 22.75C15.6604 22.8537 15.5841 22.9416 15.488 23.0032C15.392 23.0649 15.2803 23.0976 15.1662 23.0976C15.0521 23.0976 14.9404 23.0649 14.8444 23.0032C14.7484 22.9416 14.6721 22.8537 14.6246 22.75L10.8329 15.1667L3.24956 11.375C3.14584 11.3275 3.05794 11.2512 2.99632 11.1551C2.9347 11.0591 2.90195 10.9474 2.90195 10.8333C2.90195 10.7192 2.9347 10.6075 2.99632 10.5115C3.05794 10.4155 3.14584 10.3392 3.24956 10.2917L22.7496 3.25Z" stroke="#FB923C" stroke-width="1.5" stroke-linecap="round" stroke-linejoin="round"/>
</svg>
